<svg xmlns="http://www.w3.org/2000/svg" viewBox="0 0 150 80" style="enable-background:new 0 0 150 80" xml:space="preserve">
    <linearGradient id="a" gradientUnits="userSpaceOnUse" x1="72.29" y1="33.921" x2="72.29" y2="66.709">
        <stop offset="0" style="stop-color:#74c9bb"/>
        <stop offset=".755" style="stop-color:#3b98d4"/>
        <stop offset="1" style="stop-color:#00a3c2"/>
    </linearGradient>
    <path d="M95 54.6c0 .3 0 7.2 3.7 11.9H83.8c-1-1.7-1.5-3.7-1.8-5.6-3.4 3.5-13.3 7.3-21.8 7.3-9.6 0-16.7-3.9-13.5-11.3 4.2-9.7 21.9-15.9 35.9-17.5-.8-1.4-4.2-5.6-11.6-5.7-10-.2-15 4.7-17.2 6.1l5.1-11c7-3 13-3.7 16.8-3.7 10.1 0 19.3 4.4 19.3 16.6v12.9zm-14.9-7.7C70.4 48.8 62 53.2 62 56.1c0 3 3.3 3.4 5.7 3.4.4 0 12.7-2 15.5-13.2-.1.4-2 .5-3.1.6z" style="fill:url(#a)"/>
    <linearGradient id="b" gradientUnits="userSpaceOnUse" x1="33.934" y1="7.905" x2="24.511" y2="27.578">
        <stop offset="0" style="stop-color:#457cbf"/>
        <stop offset="1" style="stop-color:#2b4ca0"/>
    </linearGradient>
    <path d="M60.5 4.7c-3.5 0-6.9 1-9.4 3l-.6.6c-.7.7-1.3 1.4-1.8 2.3 0 0 0 .1-.1.1l-.4.8-2.3 4.4-.2.4-2.7 5.3-.5 1L35.6 36l-.2.3-.8-1.6-.2-.2c-.1-.1-.2-.3-.3-.4-.7-.9-1.2-1.9-1.4-2.2-.1-.2-.2-.5-.4-.8 0-.1-.1-.2-.1-.3-.1-.2-.2-.5-.4-.8-.1-.1-.1-.2-.2-.3-.1-.2-.2-.5-.4-.8-.1-.1-.1-.3-.2-.4 0-.1-.1-.2-.1-.3-1-2-2.2-4.5-3.5-7.1-.1-.2-.1-.3-.2-.5-.5-1-1-2-1.4-3l-3.5-6.8c-2.2-3.7-6.9-6-11.9-6H3.1l.5.9L14.1 26l18.1 35.1 3.2 6.2.1.1v-.2c0-.1.1-.1.1-.2v-.2c0-.1.1-.2.2-.3.2-.4.5-1 .9-1.7 0-.1.1-.2.1-.3.5-1 1.1-2.1 1.8-3.4.2-.4.4-.7.6-1.1l1.2-2.4c.5-1 1.1-2.1 1.7-3.2l.3-.5.2-.3c.4-.8.9-1.7 1.3-2.5l.4-.8c.1-.1.1-.3.2-.4l1.5-3c.1-.2.3-.5.4-.7.4-.8.8-1.6 1.3-2.4.1-.2.2-.3.3-.5.1-.1.1-.2.1-.3.1-.2.2-.3.3-.5.4-.8.8-1.6 1.2-2.3.2-.4.4-.7.6-1.1l.3-.6v-.1c.1-.2.2-.3.3-.5.1-.1.1-.2.2-.3 0 0 0-.1.1-.1.1-.2.2-.5.4-.7l.3-.6c0-.1.1-.2.2-.3.2-.3.3-.6.5-.9.1-.1.1-.3.2-.4l.8-1.6c.1-.1.1-.2.2-.3.1-.2.2-.3.2-.5 0 0 0-.1.1-.1 0-.1.1-.1.1-.1 0-.1.1-.1.1-.2v-.3l4.3-8.4 4.8-9.3L66.8 7l.9-1.7.2-.4h-7.4z" style="fill:url(#b)"/>
    <defs>
        <filter id="c" filterUnits="userSpaceOnUse" x="35.3" y="5.1" width="32.4" height="33.2">
            <feFlood style="flood-color:white;flood-opacity:1" result="back"/>
            <feBlend in="SourceGraphic" in2="back"/>
        </filter>
    </defs>
    <mask maskUnits="userSpaceOnUse" x="35.3" y="5.1" width="32.4" height="33.2" id="d">
        <g style="filter:url(#c)">
            <path d="M60.3 5.1c-3.4 0-6.6 1-9.1 2.8-.2.2-.4.3-.6.5-.9.8-1.6 1.7-2.2 2.7l-.4.8-2.1 4-.2.4-2.7 5.4-.5 1-2.8 5.4-4 7.9-.2.4-.2.3.8 1.6.2-.3.5-.9 6.5-12.7.5-1 2.7-5.3.2-.4 2.1-4 .4-.8c.6-1.2 1.5-2.2 2.5-3 .1-.1.2-.1.2-.2C54.1 8 57 7 60.1 6.9h6.6l.9-1.7h-7.3z" style="mask:url(#d);fill:url(#SVGID_4_)"/>
        </g>
    </mask>
    <linearGradient id="e" gradientUnits="userSpaceOnUse" x1="-764.226" y1="2139.674" x2="-792.53" y2="2190.261" gradientTransform="rotate(180 -367.154 1099.033)">
        <stop offset="0" style="stop-color:#fff"/>
        <stop offset=".015" style="stop-color:#fffef9"/>
        <stop offset=".18" style="stop-color:#f9f9d7"/>
        <stop offset=".347" style="stop-color:#f7f5ba"/>
        <stop offset=".513" style="stop-color:#f5f2a4"/>
        <stop offset=".677" style="stop-color:#f3f094"/>
        <stop offset=".84" style="stop-color:#f3ef8a"/>
        <stop offset="1" style="stop-color:#f2ef87"/>
    </linearGradient>
    <path d="M60.3 5.1c-3.4 0-6.6 1-9.1 2.8-.2.2-.4.3-.6.5-.9.8-1.6 1.7-2.2 2.7l-.4.8-2.1 4-.2.4-2.7 5.4-.5 1-2.8 5.4-4 7.9-.2.4-.2.3.8 1.6.2-.3.5-.9 6.5-12.7.5-1 2.7-5.3.2-.4 2.1-4 .4-.8c.6-1.2 1.5-2.2 2.5-3 .1-.1.2-.1.2-.2C54.1 8 57 7 60.1 6.9h6.6l.9-1.7h-7.3z" style="opacity:.6;fill:url(#e)"/>
    <radialGradient id="f" cx="68.151" cy="91.56" r="106.302" gradientTransform="matrix(1 0 0 1.0841 0 -28.487)" gradientUnits="userSpaceOnUse">
        <stop offset="0" style="stop-color:#fff"/>
        <stop offset=".5" style="stop-color:#f6b522"/>
        <stop offset="1" style="stop-color:#c72127"/>
    </radialGradient>
    <path d="M60.5 4.6c-4.9 0-9.7 2.1-11.9 6l-.4.8-3.8 7.5-8.7 17-.2.3-.8-1.6c-.8-1.1-1.7-2.4-1.9-2.9v-.1c-.1-.2-.2-.3-.3-.5 0 0 0-.1-.1-.1-.1-.1-.1-.3-.2-.4-.1-.3-.2-.4-.2-.6 0-.1-.1-.1-.1-.2s-.1-.2-.2-.3c-.1-.2-.2-.5-.4-.8-.1-.1-.1-.3-.2-.4 0-.1-.1-.2-.1-.3-.1-.1-.1-.2-.2-.4s-.1-.3-.2-.5-.2-.5-.3-.7c-.1-.2-.2-.3-.2-.5 0-.1-.1-.2-.2-.3-.1-.3-.3-.6-.4-.8-.1-.3-.3-.6-.4-.9l-.3-.6c-.1-.2-.2-.4-.3-.7 0-.1-.1-.1-.1-.2-.3-.5-.5-1.1-.8-1.7-.1-.2-.2-.3-.2-.5-.5-1-1-2-1.4-3l-.6-1.2-2.9-5.6-.6-.9c-.4-.5-.8-.9-1.2-1.4l-.1-.1c-.7.7-1.3 1.4-1.8 2.3 0 0 0 .1-.1.1l-.4.8-2.3 4.4-.2.4-2.7 5.3-.5 1 .9 1.7.9 1.7 3.1 5.9 2.5 4.9.7 1.3.1.2 11.4 23 3.2 6.2.1.1v-.2c0-.1.1-.2.2-.3v-.1c.1-.1.1-.2.2-.3.2-.4.5-1 .9-1.7 0-.1.1-.2.1-.3 1.1-2.2 2.7-5.3 4.5-8.8.2-.4.5-.9.7-1.3l.3-.5.2-.3c.4-.8.9-1.7 1.3-2.5l.4-.8c.1-.1.1-.3.2-.4.1-.3.3-.5.4-.8 0 0 0-.1.1-.1l.6-1.2c.1-.2.2-.3.2-.5l.6-1.2c.4-.7.7-1.4 1.1-2.1.1-.3.3-.5.4-.8.8-1.5 1.5-2.9 2.2-4.2.1-.2.2-.5.4-.7.1-.2.2-.3.3-.5.3-.6.6-1.2.9-1.7.1-.1.1-.3.2-.4.1-.3.3-.5.4-.7.2-.4.4-.7.5-1 .1-.1.1-.2.1-.3.1-.1.1-.3.2-.4 0-.1.1-.1.1-.2s.1-.1.1-.2c.1-.2.2-.3.2-.5.1-.2.2-.3.2-.4 0-.1.1-.1.1-.2 0 0 0-.1.1-.1v-.3l2.9-5.7 6.2-12 3.5-6.8L67.6 5l.2-.4h-7.3z" style="fill:url(#f)"/>
    <defs>
        <filter id="g" filterUnits="userSpaceOnUse" x="35.5" y="18.9" width="21.6" height="30">
            <feFlood style="flood-color:white;flood-opacity:1" result="back"/>
            <feBlend in="SourceGraphic" in2="back"/>
        </filter>
    </defs>
    <mask maskUnits="userSpaceOnUse" x="35.5" y="18.9" width="21.6" height="30" id="h">
        <g style="filter:url(#g)">
            <path d="m57.1 25.5-2.9 5.7v.3s0 .1-.1.1c0 .1-.1.1-.1.2-.1.1-.1.3-.2.4-.1.1-.2.3-.2.5 0 .1-.1.1-.1.2s-.1.1-.1.2c-.1.1-.1.3-.2.4 0 .1-.1.2-.1.3-.2.3-.3.6-.5 1-.1.2-.2.5-.4.7-.1.1-.1.3-.2.4-.3.5-.6 1.1-.9 1.7-.1.2-.2.3-.3.5-.1.2-.2.5-.4.7-.7 1.3-1.4 2.7-2.2 4.2-.1.3-.3.5-.4.8-.4.7-.7 1.4-1.1 2.1l-.6 1.2c-.1.2-.2.3-.2.5l-.6 1.2s0 .1-.1.1h-.3l-9.3-12.7.2-.3 8.7-17 12.6 6.6z" style="mask:url(#h);fill:url(#SVGID_8_)"/>
        </g>
    </mask>
    <linearGradient id="i" gradientUnits="userSpaceOnUse" x1="45.603" y1="42.542" x2="46.835" y2="21.588">
        <stop offset="0" style="stop-color:#d51f27"/>
        <stop offset="1" style="stop-color:#f6eb16"/>
    </linearGradient>
    <path d="m57.1 25.5-2.9 5.7v.3s0 .1-.1.1c0 .1-.1.1-.1.2-.1.1-.1.3-.2.4-.1.1-.2.3-.2.5 0 .1-.1.1-.1.2s-.1.1-.1.2c-.1.1-.1.3-.2.4 0 .1-.1.2-.1.3-.2.3-.3.6-.5 1-.1.2-.2.5-.4.7-.1.1-.1.3-.2.4-.3.5-.6 1.1-.9 1.7-.1.2-.2.3-.3.5-.1.2-.2.5-.4.7-.7 1.3-1.4 2.7-2.2 4.2-.1.3-.3.5-.4.8-.4.7-.7 1.4-1.1 2.1l-.6 1.2c-.1.2-.2.3-.2.5l-.6 1.2s0 .1-.1.1h-.3l-9.3-12.7.2-.3 8.7-17 12.6 6.6z" style="opacity:.7;fill:url(#i)"/>
    <defs>
        <filter id="j" filterUnits="userSpaceOnUse" x="35.5" y="4.6" width="32.4" height="33.2">
            <feFlood style="flood-color:white;flood-opacity:1" result="back"/>
            <feBlend in="SourceGraphic" in2="back"/>
        </filter>
    </defs>
    <mask maskUnits="userSpaceOnUse" x="35.5" y="4.6" width="32.4" height="33.2" id="k">
        <g style="filter:url(#j)">
            <path d="M60.5 4.6c-4.9 0-9.7 2.1-11.9 6l-.4.8-12.4 24-.2.4-.2.3.8 1.6.2-.3.5-.9L49 12.9l.4-.8c2-3.7 6.3-5.7 10.9-6H67l.9-1.7h-7.4z" style="mask:url(#k);fill:url(#SVGID_11_)"/>
        </g>
    </mask>
    <linearGradient id="l" gradientUnits="userSpaceOnUse" x1="39.15" y1="31.07" x2="62.817" y2="2.215">
        <stop offset="0" style="stop-color:#fff"/>
        <stop offset=".015" style="stop-color:#fffef9"/>
        <stop offset=".18" style="stop-color:#f9f9d7"/>
        <stop offset=".347" style="stop-color:#f7f5ba"/>
        <stop offset=".513" style="stop-color:#f5f2a4"/>
        <stop offset=".677" style="stop-color:#f3f094"/>
        <stop offset=".84" style="stop-color:#f3ef8a"/>
        <stop offset="1" style="stop-color:#f2ef87"/>
    </linearGradient>
    <path d="M60.5 4.6c-4.9 0-9.7 2.1-11.9 6l-.4.8-12.4 24-.2.4-.2.3.8 1.6.2-.3.5-.9L49 12.9l.4-.8c2-3.7 6.3-5.7 10.9-6H67l.9-1.7h-7.4z" style="opacity:.6;fill:url(#l)"/>
    <linearGradient id="m" gradientUnits="userSpaceOnUse" x1="-785.283" y1="2139.581" x2="-742.066" y2="2203.27" gradientTransform="rotate(180 -367.154 1099.033)">
        <stop offset="0" style="stop-color:#74c9bb"/>
        <stop offset=".755" style="stop-color:#3b98d4"/>
        <stop offset="1" style="stop-color:#00a3c2"/>
    </linearGradient>
    <path d="M3.1 4.7c5.5-1.8 10.4-2.5 15.5-1.9.8 1.5 5.2 10.4 7.2 14.7.5 1 1 2 1.4 3 2.4 4.9 4.7 9.7 5.4 11.2.2.5 1.1 1.8 1.9 2.9.3.5.7.9 1 1.3.2.3.5.6.6.7 1.1 1.1 2.5 1.8 3.9 2.3 1.8.6 3.7.7 5.6.2 3.5-1.1 6.7-4.4 8.5-7.8-.4.8-5.2 10-9.7 18.9l-.5.8c-.4.8-.9 1.7-1.3 2.5l-.4.8c-3.7 7.1-6.7 13.1-6.7 13.1L14.1 26 3.6 5.6l-.5-.9z" style="fill:url(#m)"/>
    <defs>
        <filter id="n" filterUnits="userSpaceOnUse" x="3.1" y="3.2" width="35.6" height="64.2">
            <feFlood style="flood-color:white;flood-opacity:1" result="back"/>
            <feBlend in="SourceGraphic" in2="back"/>
        </filter>
    </defs>
    <mask maskUnits="userSpaceOnUse" x="3.1" y="3.2" width="35.6" height="64.2" id="o">
        <g style="filter:url(#n)">
            <path d="M3.1 4.7c2-.6 3.9-1.2 5.8-1.5l29.8 57.9c-1.9 3.8-3.3 6.4-3.3 6.4L3.5 5.6l-.4-.9z" style="mask:url(#o);fill:url(#SVGID_15_)"/>
        </g>
    </mask>
    <linearGradient id="p" gradientUnits="userSpaceOnUse" x1="-742.784" y1="2188.664" x2="-773.682" y2="2130.064" gradientTransform="rotate(180 -367.154 1099.033)">
        <stop offset="0" style="stop-color:#fff"/>
        <stop offset=".015" style="stop-color:#fffef9"/>
        <stop offset=".18" style="stop-color:#f9f9d7"/>
        <stop offset=".347" style="stop-color:#f7f5ba"/>
        <stop offset=".513" style="stop-color:#f5f2a4"/>
        <stop offset=".677" style="stop-color:#f3f094"/>
        <stop offset=".84" style="stop-color:#f3ef8a"/>
        <stop offset="1" style="stop-color:#f2ef87"/>
    </linearGradient>
    <path d="M3.1 4.7c2-.6 3.9-1.2 5.8-1.5l29.8 57.9c-1.9 3.8-3.3 6.4-3.3 6.4L3.5 5.6l-.4-.9z" style="opacity:.6;fill:url(#p)"/>
    <defs>
        <filter id="q" filterUnits="userSpaceOnUse" x="3.1" y="4.4" width="32.9" height="63">
            <feFlood style="flood-color:white;flood-opacity:1" result="back"/>
            <feBlend in="SourceGraphic" in2="back"/>
        </filter>
    </defs>
    <mask maskUnits="userSpaceOnUse" x="3.1" y="4.4" width="32.9" height="63" id="r">
        <g style="filter:url(#q)">
            <path d="m3.1 4.7.9-.3.1.2L36 66.4c-.3.7-.5 1-.5 1L3.6 5.6l-.5-.9z" style="mask:url(#r);fill:url(#SVGID_18_)"/>
        </g>
    </mask>
    <linearGradient id="s" gradientUnits="userSpaceOnUse" x1="-771.599" y1="2132.58" x2="-733.46" y2="2196.854" gradientTransform="rotate(180 -367.154 1099.033)">
        <stop offset="0" style="stop-color:#fff"/>
        <stop offset=".015" style="stop-color:#fffef9"/>
        <stop offset=".18" style="stop-color:#f9f9d7"/>
        <stop offset=".347" style="stop-color:#f7f5ba"/>
        <stop offset=".513" style="stop-color:#f5f2a4"/>
        <stop offset=".677" style="stop-color:#f3f094"/>
        <stop offset=".84" style="stop-color:#f3ef8a"/>
        <stop offset="1" style="stop-color:#f2ef87"/>
    </linearGradient>
    <path d="m3.1 4.7.9-.3.1.2L36 66.4c-.3.7-.5 1-.5 1L3.6 5.6l-.5-.9z" style="opacity:.6;fill:url(#s)"/>
    <defs>
        <filter id="t" filterUnits="userSpaceOnUse" x="8.9" y="3.2" width="29.8" height="57.9">
            <feFlood style="flood-color:white;flood-opacity:1" result="back"/>
            <feBlend in="SourceGraphic" in2="back"/>
        </filter>
    </defs>
    <mask maskUnits="userSpaceOnUse" x="8.9" y="3.2" width="29.8" height="57.9" id="u">
        <g style="filter:url(#t)">
            <path style="mask:url(#u);fill:url(#SVGID_21_)" d="M38.7 61.1 8.9 3.2h.5z"/>
        </g>
    </mask>
    <linearGradient id="v" gradientUnits="userSpaceOnUse" x1="-745.991" y1="2189.4" x2="-774.501" y2="2135.329" gradientTransform="rotate(180 -367.154 1099.033)">
        <stop offset="0" style="stop-color:#fff"/>
        <stop offset=".015" style="stop-color:#fffef9"/>
        <stop offset=".18" style="stop-color:#f9f9d7"/>
        <stop offset=".347" style="stop-color:#f7f5ba"/>
        <stop offset=".513" style="stop-color:#f5f2a4"/>
        <stop offset=".677" style="stop-color:#f3f094"/>
        <stop offset=".84" style="stop-color:#f3ef8a"/>
        <stop offset="1" style="stop-color:#f2ef87"/>
    </linearGradient>
    <path style="opacity:.2;fill:url(#v)" d="M38.7 61.1 8.9 3.2h.5z"/>
    <linearGradient id="w" gradientUnits="userSpaceOnUse" x1="114.353" y1="33.566" x2="114.353" y2="65.037">
        <stop offset="0" style="stop-color:#74c9bb"/>
        <stop offset=".755" style="stop-color:#3b98d4"/>
        <stop offset="1" style="stop-color:#00a3c2"/>
    </linearGradient>
    <path d="M127.3 25.1c-6.8 0-11 4.7-13 7l-1.3-6H87.4c12.8 1.5 13.3 10.7 12.2 24.3-1 11.6 1.3 16.2 1.3 16.2h13.5v-2.7c-.1-.5-.2-.9-.3-1.4-.2-.8-.3-1.6-.4-2.2 0-.6.1-.8.4-.9h.3V57h-.1c-.4 0-.7-.2-.7-.5v-1.3c0-1.5.2-3 .5-4.6.1-.6.2-1.1.4-1.6 0-1.2.2-2.4.4-3.5-.5.5-.9 1-1.2 1.5-.6.9-.9 2-1.1 3.1-.1 1-.3 2-.4 3.1-.1 1.2-.2 2.4-.2 3.6 0 .4.2 3.1.4 4.6.1.6.2 1.3.3 1.9.2 1 .4 1.9.7 2.8 0 .1.1.2.1.3H112c-.1-.5-.3-.9-.4-1.4-.2-.8-.4-1.5-.5-2.3v-.1c-.1-.5-.2-1.1-.3-1.7v-.6c0-.3-.1-.9-.1-1.5v-1.9c0-1.3 0-2.6.1-3.9.2-1.3.3-2.6.5-3.9.5-2.5 1.8-4.6 4-6 .1 0 .1-.1.2-.1.3-.8.7-1.6 1.1-2.3-2.2.8-3.9 2.3-5.3 4.4-.9 1.4-1.4 3-1.6 4.7-.2 1.1-.4 2.2-.4 3.4-.4 2.5.2 7.6.3 8.8.1.6-.2 1-.8.9-.3 0-.6-.3-.6-.6-.3-2.3-.5-4.6-.5-6.9 0-1.7.2-3.4.5-5.1.2-1.1.4-2.2.7-3.2.3-1.2.9-2.3 1.7-3.4.6-.8 1.3-1.6 2.1-2.3 1.5-1.2 3.1-2.1 5-2.5.1 0 .3-.1.4-.1 1.3-.3 2.6-.3 3.9-.2 1.4.2 2.8.6 4.1 1.2.6.3 1.2.7 1.7 1.1 1.2.8 2.2 1.9 3 3.1.7 1 1.2 2.1 1.6 3.3.5 1.8.7 3.6.4 5.4-.3 1.6-.5 3.2-.3 4.9 0 .4-.2.7-.6.7-.4 0-.7-.2-.8-.6-.2-1.5-.1-3.1.2-4.6.2-.9.3-1.8.2-2.7-.1-2.3-.9-4.5-2.3-6.3-.4-.5-.8-.9-1.3-1.4v2.2c.8 1 1.4 2.2 1.8 3.6.4 1.3.4 2.7.1 4.1-.4 1.8-.5 3.7-.2 5.5.4 3.1 1.5 5.8 3.3 8.1h-1.7l-.1-.1c-.7-1.1-1.3-2.2-1.8-3.4-.4-1.1-.8-2.1-.9-3.3-.2-1.1-.3-3.4-.3-3.4 0-1.3.2-2.7.4-4 .2-.8.1-1.5 0-2.3-.1-.8-.3-1.5-.6-2.2v18.6h13.5v-26c-.1-8.3-5.3-15-14.1-15zm-17.9 40.3c.4-.1.7.1.8.4.1.2.1.4.2.6H109v-.3c-.1-.3.1-.6.4-.7zm9.5-35.3.9-.7.9.6 2 1.5c-1.2-.1-2.4-.2-3.6-.1-.4 0-.8.1-1.2.1-.2 0-.4-.1-.6-.2l1.6-1.2zm-9.5 12.6c-.1.2-.2.4-.4.6-.9 1.2-1.5 2.6-1.9 4-.2.9-.4 1.8-.5 2.7-.2 1.3-.4 2.5-.4 3.8-.1 2-.1 4.1.1 6.1.1 1.1.2 2.2.4 3.3.2 1.1.4 2.2.7 3.2H106c-.3-1.2-.5-2.4-.8-3.6-.4-2-.5-4-.5-6 0 0 .1-3.3.3-5 .2-1.5.4-2.9.7-4.4.2-1.1.6-2.3 1.2-3.3l1.2-2.1c.2-.3.5-.4.8-.3.4.3.6.6.5 1zm16.8-4.2c-1.2-.5-2.5-.9-3.8-1.1-.6-.1-1.3-.1-1.7-.2-3.5.1-6.4 1.1-8.9 3.1-.5.4-1 .3-1.2-.1-.2-.3-.1-.6.2-.8.8-.5 1.5-1.1 2.3-1.6.9-.6 2-1 3-1.3.7-.2 1.4-.4 2.1-.5 0 0 1.2-.2 2.1-.2.8.1 1.6.1 2.4.2 1.4.2 2.8.6 4 1.2.4.2.6.6.4.9-.1.2-.3.4-.6.4 0 .1-.1.1-.3 0zm9.3 28h-.6c-.3-.4-.7-.8-1-1.1-.6-.7-1.2-1.7-1.5-2.3-.1-.1-.1-.3-.2-.4-.2-.4-.4-.9-.6-1.3-.1-.3.1-.7.4-.8.3-.1.7 0 .9.3.2.4.4.7.5 1.1l1 1.7 1.2 1.5v1.3zm0-12.8c0 .3-.1.6-.2 1-.2 1.3-.2 2.5.1 3.8 0 .1.1.3.1.4v3.7c-.5-.8-.9-1.7-1.2-2.7-.5-1.7-.7-3.4-.4-5.1.1-1 .3-1.9.4-2.9.1-1 0-2-.2-3s-.5-2-.8-3c-.6-1.4-1.4-2.7-2.4-3.9-.5-.6-1.1-1.1-1.7-1.6-.3-.3-.4-.7-.2-1 .2-.3.7-.4 1-.1 1.5 1.2 2.7 2.7 3.7 4.4.5.9 1 1.9 1.3 3 .2.6.3 1.2.4 1.8v5.2zm.7-8.5c-.2-.5-.4-1.1-.7-1.6-.9-1.9-2.2-3.5-3.8-5-1.7-1.5-3.6-2.6-5.7-3.4-2.1-.7-4.3-1-6.5-.9-1.5.1-2.9.4-4.3.9-2.1.7-4 1.8-5.7 3.3-.1.1-.9.8-1.2 1.1l-.1.1c-.4.5-1.5 2-1.5 2-.8 1.2-2 3.4-2 3.4h-1.3c.1-.3.2-.7.4-1 .5-1.2 1.1-2.4 1.9-3.4 1.9-3.1 5.8-5.4 8.2-6.5.7-.3 1.4-.5 2.1-.7 1.6-.4 3.3-.6 5-.6 1.6 0 3.2.3 4.8.7 4.2 1.1 7.5 3.4 10.1 7.5.8 1.3 1.5 2.6 2 4h-1.7zm2.5 0c0-.1 0-.2-.1-.3-.2-.5-.4-1.1-.6-1.6l2 1.5c0 .1.1.2.1.4h-1.4z" style="fill:url(#w)"/>
    <path style="fill:#f5f5f5" d="M64.1 24.4H40v-11h24.1z"/>
    <path d="M38.5 20.9c0 .4-.1.7-.2 1-.1.3-.3.5-.6.7-.2.2-.5.3-.9.4-.3.1-.7.2-1.1.2-.3 0-.5 0-.7-.1-.2 0-.4-.1-.6-.2-.2-.1-.3-.1-.5-.2s-.2-.1-.3-.2c-.1-.1-.1-.1-.1-.2v-.9s0-.1.1-.1h.1c.1 0 .1 0 .3.1.1.1.3.1.4.2.2.1.4.2.6.2.2.1.5.1.8.1.2 0 .4 0 .6-.1.2 0 .3-.1.5-.2.1-.1.2-.2.3-.4.1-.1.1-.3.1-.5s-.1-.4-.2-.5c-.1-.1-.2-.3-.4-.4l-.6-.3c-.2-.1-.4-.2-.7-.3-.2-.1-.4-.2-.7-.3-.2-.1-.4-.3-.6-.4-.2-.2-.3-.4-.4-.6-.1-.2-.2-.5-.2-.8 0-.3.1-.5.2-.8.1-.3.3-.5.5-.7.2-.2.5-.3.8-.5.3-.1.7-.2 1.1-.2h.6c.2 0 .4.1.5.1.2 0 .3.1.4.2.1.1.2.1.2.1.1 0 .1.1.1.1v.8s0 .1-.1.1h-.1s-.1 0-.2-.1-.2-.1-.3-.2c-.1-.1-.3-.1-.5-.2s-.4-.1-.7-.1c-.2 0-.4 0-.6.1-.2.1-.3.1-.4.2-.1.1-.2.2-.2.3-.1.1-.1.3-.1.4 0 .2.1.4.2.5.1.1.2.3.4.4l.6.3c.2.1.4.2.7.3.2.1.4.2.7.3.2.1.4.2.6.4.2.2.3.3.4.6.1.8.2 1.1.2 1.4zm12.8 2v.1l-.1.1h-1c-.1-.1-.2-.1-.2-.1v-4.4c0-.3 0-.6-.1-.8-.1-.2-.1-.5-.3-.6-.1-.2-.3-.3-.4-.4-.2-.1-.4-.1-.6-.1-.3 0-.6.1-.9.3-.3.2-.6.6-1 1v5.1l-.1.1h-1c-.1 0-.1 0-.1-.1v-4.4c0-.3 0-.6-.1-.8s-.1-.5-.3-.6c-.1-.2-.3-.3-.4-.4-.2-.1-.4-.1-.6-.1-.3 0-.6.1-.9.3-.3.2-.6.6-1 1v5.1l-.1.1h-1s-.1 0-.1-.1v-7.4s0-.1.1-.1h1s.1 0 .1.1v1c.4-.5.8-.8 1.2-1 .4-.2.8-.3 1.1-.3.3 0 .6 0 .8.1l.6.3c.2.1.3.3.5.4l.3.6c.2-.3.5-.5.7-.7.2-.2.4-.3.6-.4.2-.1.4-.2.6-.2.2-.1.4-.1.6-.1.5 0 .8.1 1.2.2.3.2.6.4.8.6.2.3.3.6.4.9.1.4.1.7.1 1.1v4.6zm8.1 0c0 .1 0 .1-.1.1 0 0-.1.1-.2.1h-.6c-.1 0-.1 0-.2-.1l-.1-.1v-.7c-.3.3-.7.6-1 .8-.4.2-.8.3-1.2.3-.4 0-.7 0-1-.1-.3-.1-.6-.2-.8-.4-.2-.2-.4-.4-.5-.7-.1-.3-.2-.6-.2-.9 0-.4.1-.8.2-1 .2-.3.4-.5.7-.7.3-.2.7-.3 1.1-.4.4-.1.9-.1 1.5-.1h1v-.6c0-.3 0-.5-.1-.7-.1-.2-.2-.4-.3-.5-.1-.1-.3-.2-.5-.3-.2-.1-.5-.1-.8-.1-.3 0-.6 0-.9.1-.3.1-.5.2-.7.3-.2.1-.4.2-.5.3-.1.1-.2.1-.3.1h-.1l-.1-.1s0-.1-.1-.2v-.5c0-.1.1-.1.1-.2.1-.1.2-.2.4-.2l.6-.3c.2-.1.5-.1.7-.2.3-.1.5-.1.8-.1.5 0 1 .1 1.3.2.4.1.7.3.9.5.2.2.4.5.5.8.1.3.2.7.2 1.2v4.4zm-1.3-3.3H57c-.4 0-.7 0-.9.1-.3.1-.5.2-.7.3-.2.1-.3.3-.4.4-.1.2-.1.4-.1.6 0 .4.1.7.4.9.2.2.6.3 1 .3.3 0 .7-.1 1-.3.3-.2.6-.4.9-.8v-1.5zm8.2-3.4v.5s0 .1-.1.1h-.3c-.1 0-.1 0-.2-.1-.1 0-.2 0-.3-.1h-.3c-.1 0-.3 0-.4.1-.1.1-.3.1-.4.3-.1.1-.3.3-.4.5-.2.2-.3.4-.5.7V23l-.1.1h-1s-.1 0-.1-.1v-7.4s0-.1.1-.1h1s.1 0 .1.1v1.1c.2-.3.4-.5.6-.7.2-.2.3-.3.5-.4.2-.1.3-.2.5-.2s.3-.1.5-.1h.5c.1 0 .2 0 .3.1.1 0 .1.1.2.1l.1.1v.3c-.3.1-.3.2-.3.3zm5.5 6.1v.4c0 .1-.1.2-.1.2s-.1.1-.2.1-.2.1-.3.1c-.1 0-.2 0-.3.1h-.4c-.4 0-.7 0-1-.1-.3-.1-.5-.2-.7-.4-.2-.2-.3-.5-.4-.8-.1-.3-.1-.7-.1-1.1v-4.2h-1c-.1 0-.1 0-.2-.1 0-.1-.1-.2-.1-.4v-.3c0-.1 0-.1.1-.2 0 0 0-.1.1-.1h1.1v-1.8l.1-.1c.1 0 .1 0 .2-.1h.6c.1 0 .2 0 .2.1l.1.1v1.8h1.9s.1 0 .1.1c0 0 0 .1.1.2v.3c0 .2 0 .3-.1.4 0 .1-.1.1-.2.1h-1.8v4c0 .5.1.9.2 1.1.1.3.4.4.8.4h.3c.1 0 .2 0 .3-.1.1 0 .1-.1.2-.1h.2l.1.1v.2c.2 0 .2 0 .2.1z"/>
    <linearGradient id="x" gradientUnits="userSpaceOnUse" x1="84.649" y1="71.845" x2="142.13" y2="71.845">
        <stop offset="0" style="stop-color:#74c9bb"/>
        <stop offset=".755" style="stop-color:#3b98d4"/>
        <stop offset="1" style="stop-color:#00a3c2"/>
    </linearGradient>
    <path d="M142.1 68.5H84.6l.2.4c1.1 2.2 2.4 4.5 4 6.3h53.3v-6.7z" style="fill:url(#x)"/>
    <path d="M113.2 74v.2h-.6v-.1l-.4-1.1h-1.8l-.4 1.1v.1h-.6V74l1.5-4.1v-.1h.8v.1l1.5 4.1zm-1.9-3.6-.8 2.2h1.5l-.7-2.2zm4.4 2.9c0 .2 0 .3-.1.4-.1.1-.1.2-.2.3-.1.1-.2.1-.4.2-.1 0-.3.1-.5.1h-.3c-.1 0-.2 0-.3-.1-.1 0-.1-.1-.2-.1s-.1-.1-.1-.1 0-.1-.1-.1v-.4h.1s.1.1.2.1.2.1.3.1h.6c.1 0 .1-.1.2-.1s.1-.1.1-.2v-.2c0-.1 0-.2-.1-.2 0-.1-.1-.1-.2-.2-.1 0-.2-.1-.2-.1-.1 0-.2-.1-.3-.1-.1 0-.2-.1-.3-.1-.1 0-.2-.1-.2-.2-.1-.1-.1-.2-.2-.3 0-.1-.1-.2-.1-.4 0-.1 0-.2.1-.3 0-.1.1-.2.2-.3s.2-.2.4-.2c.1 0 .3-.1.5-.1h.2s.2 0 .2.1c.1 0 .1 0 .2.1 0 0 .1 0 .1.1v.4h-.1s-.1-.1-.2-.1-.1-.1-.2-.1h-.6c-.1 0-.1.1-.2.1l-.1.1v.2c0 .1 0 .2.1.2 0 .1.1.1.2.2.1 0 .2.1.2.1.1 0 .2.1.3.1.1 0 .2.1.3.1.1 0 .2.1.3.2.1.1.1.2.2.2.2.4.2.5.2.6zm3 .9c0 .1-.1.1-.1.1h-.3v-.4c-.1.1-.3.3-.5.3-.2.1-.3.1-.5.1s-.3 0-.4-.1c-.1 0-.2-.1-.3-.2-.1-.1-.2-.2-.2-.3-.1-.1-.1-.2-.1-.4s0-.3.1-.5l.3-.3c.1-.1.3-.1.5-.2.2 0 .4-.1.6-.1h.4v-.5c0-.1-.1-.2-.1-.2-.1-.1-.1-.1-.2-.1h-.7c-.1 0-.2.1-.3.1-.1 0-.2.1-.2.1h-.1v-.3s0-.1.1-.1c0 0 .1-.1.2-.1s.2-.1.3-.1c.1 0 .2-.1.3-.1h.4c.2 0 .4 0 .6.1.2 0 .3.1.4.2.1.1.2.2.2.4 0 .1.1.3.1.5v2.1zm-.6-1.4h-.9c-.1 0-.2.1-.3.1l-.2.2c0 .1-.1.2-.1.2 0 .2.1.3.2.4.1.1.2.1.4.1.1 0 .3 0 .4-.1.1-.1.3-.2.4-.3v-.6zm3.8 1.4c0 .1-.1.1-.1.1h-.3v-.4c-.1.1-.3.3-.5.3-.2.1-.3.1-.5.1s-.3 0-.4-.1c-.1 0-.2-.1-.3-.2-.1-.1-.2-.2-.2-.3-.1-.1-.1-.2-.1-.4s0-.3.1-.5l.3-.3c.1-.1.3-.1.5-.2s.4-.1.6-.1h.4v-.5c0-.1-.1-.2-.1-.2-.1-.1-.1-.1-.2-.1h-.7c-.1 0-.2.1-.3.1-.1 0-.2.1-.2.1h-.1v-.3s0-.1.1-.1c0 0 .1-.1.2-.1s.2-.1.3-.1c.1 0 .2-.1.3-.1h.4c.2 0 .4 0 .6.1.2 0 .3.1.4.2.1.1.2.2.2.4 0 .1.1.3.1.5v2.1zm-.6-1.4h-.9c-.1 0-.2.1-.3.1l-.2.2c0 .1-.1.2-.1.2 0 .2.1.3.2.4.1.1.2.1.4.1.1 0 .3 0 .4-.1.1-.1.3-.2.4-.3v-.6zm4.1 1.4-.1.1h-.3v-2.2c0-.1-.1-.2-.1-.3l-.2-.2c-.1 0-.2-.1-.3-.1-.1 0-.3 0-.4.2-.1.1-.3.2-.4.4v2.1h-.4v-3.1h.4v.4c.2-.2.3-.3.5-.4.2-.1.3-.1.5-.1s.4 0 .5.1c.1.1.3.2.3.3.1.1.1.3.2.4 0 .2.1.3.1.6v1.8zm5 0-.1.1h-.3v-2.2c0-.1-.1-.2-.1-.3l-.2-.2c-.1 0-.2-.1-.3-.1-.1 0-.3 0-.4.2-.1.1-.3.2-.4.4v2.1h-.4v-4.6h.4v1.8c.2-.2.3-.3.5-.4.2-.1.3-.1.5-.1s.4 0 .5.1c.1.1.3.2.3.3.1.1.1.3.2.4 0 .2.1.3.1.6v1.9zm3.2 0c0 .1-.1.1-.1.1h-.3v-.4c-.1.1-.3.3-.4.3-.2.1-.3.1-.5.1s-.3 0-.4-.1c-.1 0-.2-.1-.3-.2-.1-.1-.2-.2-.2-.3-.1-.1-.1-.2-.1-.4s0-.3.1-.5l.3-.3c.1-.1.3-.1.5-.2.2 0 .4-.1.6-.1h.4v-.5c0-.1-.1-.2-.1-.2-.1-.1-.1-.1-.2-.1h-.7c-.1 0-.2.1-.3.1-.1 0-.2.1-.2.1h-.1v-.3s0-.1.1-.1c0 0 .1-.1.2-.1s.2-.1.3-.1c.1 0 .2-.1.3-.1h.4c.2 0 .4 0 .6.1.2 0 .3.1.4.2s.2.2.2.4c0 .1.1.3.1.5v2.1zm-.5-1.4h-.9c-.1 0-.2.1-.3.1l-.2.2c0 .1-.1.2-.1.2 0 .2.1.3.2.4.1.1.2.1.4.1.1 0 .3 0 .4-.1.1-.1.3-.2.4-.3v-.6zm2.1-2.8c0 .1 0 .2-.1.3 0 0-.1.1-.3.1-.1 0-.2 0-.3-.1 0 0-.1-.1-.1-.3 0-.1 0-.2.1-.3 0 0 .1-.1.3-.1.1 0 .2 0 .3.1 0 .1.1.2.1.3zm-.1 4.2-.1.1h-.3v-3.1h.4v3zm1.6-.3c0 .2 0 .3-.1.3-.1.1-.2.1-.3.1-.1 0-.2 0-.3-.1-.1-.1-.1-.2-.1-.3 0-.2 0-.3.1-.3.1-.1.2-.1.3-.1.1 0 .2 0 .3.1.1 0 .1.1.1.3zm1.6 0c0 .2 0 .3-.1.3-.1.1-.2.1-.3.1-.1 0-.2 0-.3-.1-.1-.1-.1-.2-.1-.3 0-.2 0-.3.1-.3.1-.1.2-.1.3-.1.1 0 .2 0 .3.1.1 0 .1.1.1.3zm1.7 0c0 .2 0 .3-.1.3-.1.1-.2.1-.3.1-.1 0-.2 0-.3-.1-.1-.1-.1-.2-.1-.3 0-.2 0-.3.1-.3.1-.1.2-.1.3-.1.1 0 .2 0 .3.1 0 0 .1.1.1.3z" style="fill:#fff"/>
    <path d="M142.5 20.6c.7 0 1.4.2 2.1.6.7.4 1.2.9 1.6 1.6.4.7.6 1.4.6 2.2 0 .8-.2 1.5-.6 2.2-.4.7-.9 1.2-1.6 1.6-.7.4-1.4.6-2.2.6-.8 0-1.5-.2-2.2-.6-.7-.4-1.2-.9-1.6-1.6-.4-.7-.6-1.4-.6-2.2 0-.8.2-1.5.6-2.2.4-.7.9-1.2 1.6-1.6.9-.4 1.6-.6 2.3-.6zm0 .7c-.6 0-1.2.2-1.8.5-.6.3-1 .8-1.4 1.3-.3.6-.5 1.2-.5 1.8 0 .6.2 1.2.5 1.8.3.6.8 1 1.3 1.3.6.3 1.2.5 1.8.5.6 0 1.2-.2 1.8-.5.6-.3 1-.8 1.3-1.3.3-.6.5-1.2.5-1.8 0-.6-.2-1.2-.5-1.8-.3-.6-.8-1-1.4-1.3-.3-.3-.9-.5-1.6-.5zm-1.9 6.1v-4.7h1.6c.6 0 .9 0 1.2.1.2.1.4.2.6.5s.2.4.2.7c0 .3-.1.6-.4.9-.2.3-.6.4-1 .4.2.1.3.2.4.2.2.2.4.5.7.9l.6.9h-.9l-.4-.7c-.3-.6-.6-.9-.8-1.1-.1-.1-.3-.2-.6-.2h-.4v2h-.8zm.8-2.7h.9c.4 0 .7-.1.9-.2.2-.1.2-.3.2-.5 0-.1 0-.3-.1-.4-.1-.1-.2-.2-.3-.2-.1-.1-.4-.1-.8-.1h-.9v1.4z"/>
    <path d="M80.9 63.3c-10.2 6.9-19.3 8.3-27.4 6.7-8.5-2.2-13.6-6.6-14.5-8.3l-2.8 6.1c17.7 15.7 39.5 6.7 51.9 7.4-5.2-5.4-7.2-11.9-7.2-11.9z" style="fill:#fdb913"/>
</svg>
