<?xml version="1.0" encoding="utf-8"?>
<!-- Generator: Adobe Illustrator 27.3.1, SVG Export Plug-In . SVG Version: 6.00 Build 0)  -->
<svg version="1.1" id="Layer_1" xmlns="http://www.w3.org/2000/svg" xmlns:xlink="http://www.w3.org/1999/xlink" x="0px" y="0px"
	 viewBox="0 0 150 150" style="enable-background:new 0 0 150 150;" xml:space="preserve">
<style type="text/css">
	.st0{fill:#FDD700;}
	.st1{fill:#FFFFFF;}
	.st2{fill:#1B3665;}
	.st3{fill:#ABC9DB;}
	.st4{fill:none;}
	.st5{fill:url(#SVGID_1_);}
	.st6{fill:url(#SVGID_00000027572392061632164130000013889887131730225064_);}
	.st7{fill:url(#SVGID_00000145035954247331483900000005198152539046269317_);}
</style>
<g>
	<path class="st0" d="M99.99,114.37c-3.93,4.36-5.67,1.75-6.55,6.11l2.62,3.93L99.99,114.37z"/>
	<path class="st0" d="M38.09,127.41c1.12-3.74,2.82-2.46,2.18-5.48l-2.31-0.41L38.09,127.41z"/>
	<path class="st0" d="M46.32,127.41c1.12-3.74,2.82-2.46,2.18-5.48l-2.31-0.41L46.32,127.41z"/>
	<path class="st0" d="M121.81,127.41c1.12-3.74,2.82-2.46,2.18-5.48l-2.31-0.41L121.81,127.41z"/>
	<g>
		<path class="st1" d="M27.8,73.22c-1.22,0-2.37,0-3.63,0c-0.02-0.28-0.06-0.58-0.06-0.88c-0.03-9.04,0-18.07-0.11-27.11
			c-0.04-2.83,0.55-5.45,1.91-7.84c2.01-3.52,5.17-5.56,9.24-5.67c6.47-0.16,12.96-0.07,19.43-0.1c6.2-0.03,12.4-0.08,18.6-0.12
			c0.59,0,1.18,0,1.91,0c0,13.91,0,27.73,0,41.63c-6.62,0-13.28,0-20.06,0c0.16-5.23-2.34-8.99-6.34-11.89
			C46.1,59.37,43.1,58.84,40,59.1C34.06,59.6,27.52,64.87,27.8,73.22z M48.68,44.2c-0.01,0-0.03,0-0.04,0
			c0-0.98,0.04-1.96-0.01-2.94c-0.16-3.74-2.61-7.02-6.1-7.56c-2.39-0.37-4.91-0.43-7.3-0.12c-3.86,0.5-6.94,4.29-7.09,8.27
			c-0.07,1.75-0.07,3.51,0.06,5.25c0.23,3.2,1.82,5.68,4.65,7.13c2.94,1.5,6.21,1.1,9.26,0.55c3.54-0.64,5.42-3.4,6.34-6.71
			C48.78,46.85,48.61,45.49,48.68,44.2z M62.36,54.89c0-0.02,0-0.03,0-0.05c1.08,0,2.2,0.15,3.24-0.04c1.06-0.2,2.28-0.49,3.05-1.18
			c2.16-1.94,3.63-4.31,3.51-7.4c-0.06-1.61-0.02-3.22-0.04-4.83c-0.07-3.92-2.74-7.42-6.37-7.88c-2.3-0.29-4.7-0.28-7.01,0
			c-3.35,0.41-6.79,4.2-6.53,7.76c0.14,1.98,0.04,3.99,0.06,5.98c0.04,4.02,3.44,7.51,7.46,7.63
			C60.61,54.91,61.48,54.89,62.36,54.89z"/>
		<path class="st1" d="M122.6,54.98c-2.37,4.38,1.16,10.81,5.65,10.83c0,2.38,0,4.77,0,7.18c-1.56,0-3.12,0-4.78,0
			c0.22-4.8-1.99-8.33-5.51-11.17c-2.61-2.1-5.66-2.85-8.93-2.74c-6.19,0.2-12.75,5.47-12.87,14.09c-2.74,0-5.49,0-8.24,0
			c-2.73,0-5.46,0-8.34,0c0-12.04,0-24.06,0-36.15c0.29-0.06,0.56-0.16,0.82-0.16c2.63,0.04,5.25,0.04,7.87,0.15
			c1.99,0.09,3.51,1.21,4.96,2.49c1.33,1.18,2.71,2.32,4.19,3.3c0.55,0.37,1.52,0.49,2.15,0.28c1.08-0.36,1.87-0.09,2.57,0.6
			c1.57,1.54,3.23,3.02,4.6,4.73c1.29,1.62,2.78,2.56,4.79,3.07c3.42,0.87,6.76,2.03,10.13,3.08
			C121.98,54.67,122.28,54.84,122.6,54.98z M89.81,61.5c3.65-0.04,6.1-1.58,7.91-4.22c0.24-0.35,0.37-0.86,0.34-1.28
			c-0.06-0.88-0.7-1.41-1.49-1.51c-0.38-0.04-1,0.32-1.21,0.67c-2.05,3.58-6.58,3.97-9.16,0.74c-0.26-0.33-0.49-0.68-0.78-0.98
			c-0.7-0.72-1.54-0.68-2.16,0.08c-0.69,0.85-0.48,1.74,0.02,2.53C84.87,60.06,87.27,61.23,89.81,61.5z M86.37,52.29
			c1.06,0.06,1.85-0.62,1.91-1.64c0.06-1.06-0.87-2.04-2.03-2.13c-1.2-0.09-2.39,0.83-2.47,1.92
			C83.72,51.47,84.73,52.19,86.37,52.29z M97.45,50.46c-0.02-0.92-1.15-1.94-2.14-1.93c-1.09,0.01-2.3,1.2-2.25,2.2
			c0.04,0.85,0.87,1.56,1.79,1.55C96.05,52.27,97.46,51.28,97.45,50.46z"/>
		<g>
			<rect x="21.71" y="66.73" class="st0" width="108.47" height="7.64"/>
		</g>
		<g>
			<path class="st2" d="M123.23,77.14c-1.34,2.07-2.58,3.99-3.9,6.03c1.09,0,2.05,0,3.02,0c2.24,0,4.48-0.01,6.73-0.01
				c0.25,0,0.49,0,0.74,0.01c1.23,0.05,2.4,0.89,2.54,1.82c0.13,0.83-0.88,2.12-1.99,2.44c-0.53,0.15-1.1,0.2-1.66,0.2
				c-4.66-0.01-9.32-0.03-13.97-0.09c-0.74-0.01-1.14,0.24-1.62,0.84c-1.13,1.42-2.4,2.73-3.68,4.02
				c-7.22,7.32-16,11.71-26.08,13.43c-8.98,1.53-17.61,0.24-25.87-3.7c-6.3-3-11.62-7.23-16.34-12.3c-0.36-0.38-0.79-0.75-0.99-1.22
				c-0.48-1.1-1.27-1.2-2.35-1.17c-4.83,0.15-9.66,0.22-14.5,0.3c-0.45,0.01-0.91-0.03-1.36-0.1c-1.03-0.17-2.18-1.43-2.15-2.3
				c0.02-0.95,1.13-2.06,2.28-2.14c1.33-0.09,2.66-0.05,3.99-0.06c1.75,0,3.5,0.02,5.25,0.02c0.3,0,0.59-0.04,1.19-0.09
				c-1.83-1.62-3.27-3.21-3.58-5.51c-1.91,0-3.72,0.01-5.54,0c-1.93-0.02-2.88-0.69-3.26-2.59c-0.27-1.33-0.36-2.71-0.35-4.07
				c0.02-8.23,0.09-16.46,0.14-24.69c0.04-5.93,2.2-10.91,6.62-14.88c2.44-2.19,5.29-3.41,8.58-3.43
				c14.67-0.1,29.35-0.15,44.03-0.23c2.27-0.01,4.56-0.2,6.82-0.07c5.28,0.31,9.52,2.78,13.09,6.56c3.15,3.33,6.68,6.39,9.35,10.07
				c2.57,3.54,6.27,4,9.82,5.08c3.37,1.02,6.67,2.04,9.43,4.38c2.92,2.48,4.8,5.53,5.02,9.35c0.18,3.24,0,6.5-0.08,9.75
				c-0.01,0.61-0.24,1.23-0.43,1.83c-0.5,1.59-1.6,2.45-3.26,2.48C126.92,77.17,124.97,77.14,123.23,77.14z M27.8,73.22
				C27.52,64.87,34.06,59.6,40,59.1c3.1-0.26,6.1,0.27,8.69,2.16c4,2.91,6.5,6.66,6.34,11.89c6.78,0,13.44,0,20.06,0
				c0-13.9,0-27.72,0-41.63c-0.73,0-1.32,0-1.91,0c-6.2,0.04-12.4,0.09-18.6,0.12c-6.48,0.03-12.96-0.06-19.43,0.1
				c-4.07,0.1-7.23,2.14-9.24,5.67c-1.36,2.39-1.95,5.01-1.91,7.84c0.12,9.03,0.09,18.07,0.11,27.11c0,0.3,0.04,0.6,0.06,0.88
				C25.43,73.22,26.58,73.22,27.8,73.22z M122.6,54.98c-0.32-0.14-0.62-0.3-0.95-0.4c-3.37-1.05-6.71-2.2-10.13-3.08
				c-2.01-0.51-3.5-1.46-4.79-3.07c-1.37-1.71-3.02-3.19-4.6-4.73c-0.7-0.69-1.49-0.97-2.57-0.6c-0.63,0.21-1.6,0.09-2.15-0.28
				c-1.48-0.98-2.86-2.12-4.19-3.3c-1.45-1.29-2.96-2.4-4.96-2.49c-2.62-0.11-5.25-0.12-7.87-0.15c-0.26,0-0.52,0.1-0.82,0.16
				c0,12.09,0,24.11,0,36.15c2.88,0,5.61,0,8.34,0c2.75,0,5.49,0,8.24,0c0.12-8.62,6.68-13.89,12.87-14.09
				c3.28-0.11,6.33,0.64,8.93,2.74c3.52,2.84,5.73,6.37,5.51,11.17c1.66,0,3.21,0,4.78,0c0-2.41,0-4.79,0-7.18
				C123.76,65.79,120.22,59.35,122.6,54.98z M105,87.66c-2.86,0-5.52,0-8.18,0c-2.14,0-4.27,0-6.41-0.01
				c-1.17,0-1.76-0.78-2.12-1.74c-0.36-0.98,0.16-1.78,0.89-2.26c0.51-0.34,1.25-0.42,1.89-0.43c2.91-0.05,5.81-0.03,8.72-0.03
				c0.35,0,0.71,0,1.08,0c-1.38-1.97-2.68-3.8-4.05-5.76c-13.92,0-28.14,0-42.04,0c-1.36,1.96-2.64,3.8-4,5.76
				c1.18,0,2.28-0.02,3.39,0c1.75,0.04,3.5,0.07,5.24,0.18c0.99,0.06,1.43,0.79,1.53,1.71c0.19,1.67-0.53,2.51-2.36,2.53
				c-3.15,0.05-6.31,0.01-9.46,0c-0.33,0-0.65,0-0.98,0c-0.08,0.12-0.15,0.23-0.23,0.35c0.69,0.79,1.31,1.67,2.1,2.35
				c3.62,3.08,7.59,5.6,12.07,7.28c6.2,2.33,12.59,3.33,19.18,2.5c7.15-0.9,13.67-3.47,19.47-7.79
				C102.39,91.09,103.92,89.73,105,87.66z M109.99,62.86c-5.41-0.06-9.37,3.76-9.42,9.1c-0.05,5.52,4.1,10.03,9.28,10.06
				c5.19,0.04,9.4-4.39,9.46-9.91C119.36,67.27,115.1,62.75,109.99,62.86z M41.58,82c5.34,0.04,8.95-4.26,9.16-9.9
				c0.21-5.94-5.38-9.18-9.27-9.21c-5.44-0.04-9.57,3.83-9.4,9.11C32.24,77.35,35.41,81.99,41.58,82z M78.94,33.3
				c1.59,0,3.1,0.09,4.58-0.02c3.88-0.28,7.62-0.03,10.95,2.27c0.21,0.14,0.47,0.21,0.97,0.43c-4.89-4.6-10.53-4.94-16.51-4.22
				C78.94,32.32,78.94,32.8,78.94,33.3z M126.05,57.47c-0.12,0.05-0.23,0.11-0.35,0.16c-0.5,1.24-0.33,2.38,0.55,3.4
				c0.47,0.54,1.02,0.94,2.11,0.54C127.56,60.15,126.8,58.81,126.05,57.47z"/>
		</g>
		<g>
			<path class="st2" d="M113.74,5.95c6.39-0.47,12.02,3.81,13.79,10.42c1.28,4.78,0.02,9.12-2.11,13.34
				c-2.52,5-6.06,9.21-10.1,13.04c-0.62,0.59-1.18,0.7-1.8,0.08c-5.24-5.17-10.11-10.59-12.44-17.79
				c-2.42-7.49,1.24-15.51,8.35-18.28c0.68-0.26,1.4-0.44,2.12-0.57C112.27,6.05,113.01,6.02,113.74,5.95z M114.27,37.74
				c3.14-3.37,7.01-8.29,9-13.71c2.96-8.07-3.2-15.09-10.24-14.21c-3.4,0.42-7.15,3.1-7.99,6.13c-0.88,3.18-0.82,6.38,0.75,9.3
				c1.67,3.1,3.61,6.06,5.55,9.01C112.15,35.5,113.25,36.55,114.27,37.74z"/>
		</g>
		<g>
			<path class="st2" d="M45.27,23.81c0.53-0.55,0.89-1.03,1.34-1.38c6.98-5.54,14.94-8.66,23.76-9.66
				c6.22-0.71,12.37-0.42,18.41,1.29c2.32,0.66,4.58,1.51,6.86,2.31c0.22,0.08,0.5,0.43,0.49,0.64c-0.07,1.91-0.21,3.82-0.33,5.9
				c-0.81-0.3-1.69-0.57-2.52-0.94c-9.98-4.42-20.18-4.8-30.5-1.46c-2.97,0.96-5.78,2.44-8.67,3.67c-0.38,0.16-0.79,0.42-1.17,0.4
				c-2.27-0.14-4.53-0.34-6.79-0.53C45.94,24.02,45.74,23.94,45.27,23.81z"/>
		</g>
		<g>
			<path class="st2" d="M123.8,39c1.27,1.88,1.71,3.85,2.24,5.79c0.16,0.57,0.2,1.17,0.29,1.75c0.09,0.58-0.21,0.78-0.73,0.67
				c-1.5-0.32-3.01-0.6-4.49-0.99c-1.4-0.37-1.8-2.23-0.79-3.26c0.83-0.84,1.57-1.77,2.35-2.66C123.02,39.92,123.35,39.53,123.8,39z
				"/>
		</g>
		<g>
			<path class="st2" d="M126.89,96.82c1.45,0,2.71,1.07,2.74,2.33c0.03,1.23-1.37,2.44-2.79,2.43c-1.26-0.01-2.5-1.22-2.52-2.46
				C124.29,97.87,125.47,96.82,126.89,96.82z"/>
		</g>
		<g>
			<path class="st2" d="M119.88,96.86c1.51,0,2.58,0.97,2.54,2.31c-0.04,1.3-1.07,2.15-2.59,2.14c-1.57-0.01-2.61-0.91-2.6-2.25
				C117.24,97.75,118.31,96.86,119.88,96.86z"/>
		</g>
		<g>
			<path class="st2" d="M115.52,98.57c0.03,1.25-0.94,2.41-2,2.42c-1.38,0.01-2.6-1.04-2.6-2.23c0.01-1.1,1.15-2.09,2.45-2.13
				C114.57,96.58,115.5,97.43,115.52,98.57z"/>
		</g>
		<g>
			<path class="st3" d="M105,87.66c-1.08,2.07-2.62,3.42-4.27,4.66c-5.8,4.33-12.32,6.89-19.47,7.79
				c-6.59,0.83-12.97-0.18-19.18-2.5c-4.48-1.68-8.45-4.2-12.07-7.28c-0.79-0.67-1.4-1.56-2.1-2.35c0.08-0.12,0.15-0.23,0.23-0.35
				c0.33,0,0.65,0,0.98,0c3.15,0,6.31,0.04,9.46,0c1.83-0.03,2.55-0.86,2.36-2.53c-0.11-0.93-0.54-1.65-1.53-1.71
				c-1.74-0.11-3.49-0.14-5.24-0.18c-1.1-0.02-2.21,0-3.39,0c1.36-1.96,2.64-3.8,4-5.76c13.9,0,28.12,0,42.04,0
				c1.38,1.95,2.67,3.79,4.05,5.76c-0.37,0-0.72,0-1.08,0c-2.91,0-5.82-0.02-8.72,0.03c-0.64,0.01-1.39,0.09-1.89,0.43
				c-0.73,0.49-1.26,1.29-0.89,2.26c0.36,0.96,0.94,1.74,2.12,1.74c2.14,0.01,4.27,0.01,6.41,0.01
				C99.48,87.67,102.14,87.66,105,87.66z M75.03,87.78c1.34,0,2.98,0.03,4.62-0.01c1.52-0.04,3.01-1.28,2.97-2.42
				c-0.03-1.13-1.36-2.14-2.94-2.13c-3.32,0.02-6.64,0.05-9.95,0.17c-2.76,0.1-2.73,0.15-2.23,2.83c0.15,0.78,0.48,1.2,1.26,1.25
				C70.75,87.57,72.74,87.66,75.03,87.78z"/>
		</g>
		<g>
			<path class="st0" d="M78.94,33.3c0-0.51,0-0.99,0-1.54c5.98-0.73,11.62-0.38,16.51,4.22c-0.51-0.22-0.77-0.29-0.97-0.43
				c-3.33-2.3-7.07-2.55-10.95-2.27C82.03,33.39,80.53,33.3,78.94,33.3z"/>
		</g>
		<g>
			<path class="st0" d="M126.05,57.47c0.76,1.34,1.51,2.68,2.32,4.1c-1.09,0.4-1.64,0-2.11-0.54c-0.88-1.01-1.06-2.16-0.55-3.4
				C125.81,57.58,125.93,57.53,126.05,57.47z"/>
		</g>
		<g>
			<g>
				<path class="st3" d="M114.27,37.74c-1.02-1.2-2.12-2.25-2.93-3.49c-1.93-2.95-3.88-5.91-5.55-9.01
					c-1.57-2.92-1.63-6.12-0.75-9.3c0.83-3.03,4.59-5.7,7.99-6.13c7.04-0.88,13.2,6.14,10.24,14.21
					C121.28,29.45,117.41,34.37,114.27,37.74z M114.31,26.09c3.61,0.16,6.25-3.35,6.46-6.72c0.21-3.37-2.75-6.28-6.19-6.34
					c-3.75-0.06-6.78,2.63-6.86,6.08C107.63,22.93,110.55,26.03,114.31,26.09z"/>
			</g>
		</g>
		<g>
			<path class="st2" d="M48.68,44.2c-0.07,1.29,0.1,2.65-0.24,3.87c-0.92,3.31-2.79,6.08-6.34,6.71c-3.05,0.55-6.31,0.95-9.26-0.55
				c-2.84-1.45-4.42-3.92-4.65-7.13c-0.13-1.74-0.12-3.5-0.06-5.25c0.15-3.98,3.24-7.77,7.09-8.27c2.39-0.31,4.91-0.26,7.3,0.12
				c3.49,0.54,5.94,3.82,6.1,7.56c0.04,0.98,0.01,1.96,0.01,2.94C48.65,44.2,48.67,44.2,48.68,44.2z M44.66,44.11
				c-0.04,0-0.07,0-0.11,0c0-0.98,0.02-1.96-0.01-2.94c-0.05-1.85-1.24-3.41-3-3.99c-1.96-0.65-3.96-0.51-5.9-0.1
				c-2.05,0.44-3.5,2.3-3.55,4.29c-0.05,2.03-0.05,4.05,0,6.08c0.05,1.75,1.86,3.52,3.62,3.57c1.57,0.04,3.15,0.04,4.72,0
				c2.58-0.05,4.21-1.73,4.23-4.3C44.66,45.86,44.66,44.98,44.66,44.11z"/>
		</g>
		<g>
			<path class="st2" d="M62.36,54.89c-0.87,0-1.75,0.02-2.62,0c-4.02-0.12-7.42-3.61-7.46-7.63c-0.02-1.99,0.08-4-0.06-5.98
				c-0.26-3.56,3.18-7.36,6.53-7.76c2.31-0.28,4.7-0.29,7.01,0c3.63,0.46,6.3,3.96,6.37,7.88c0.03,1.61-0.02,3.22,0.04,4.83
				c0.12,3.09-1.35,5.47-3.51,7.4c-0.76,0.68-1.98,0.98-3.05,1.18c-1.05,0.2-2.16,0.04-3.24,0.04
				C62.36,54.86,62.36,54.88,62.36,54.89z M56.04,43.97c0.05,0,0.1,0,0.15,0c0,0.98-0.01,1.96,0,2.93c0.04,2.48,1.68,4.12,4.14,4.13
				c1.5,0,3.01,0.03,4.51-0.04c2.22-0.1,3.53-1.49,3.56-3.71c0.02-1.99,0.02-3.98,0-5.98c-0.02-2.28-1.28-3.93-3.52-4.28
				c-1.57-0.25-3.2-0.27-4.8-0.21c-2.16,0.09-4.38,2.44-4.06,4.64C56.15,42.28,56.04,43.14,56.04,43.97z"/>
		</g>
		<g>
			<path class="st2" d="M89.81,61.5c-2.54-0.27-4.94-1.44-6.54-3.96c-0.51-0.8-0.72-1.69-0.02-2.53c0.63-0.76,1.47-0.8,2.16-0.08
				c0.29,0.3,0.52,0.65,0.78,0.98c2.57,3.22,7.11,2.83,9.16-0.74c0.2-0.35,0.83-0.71,1.21-0.67c0.8,0.09,1.43,0.63,1.49,1.51
				c0.03,0.42-0.1,0.93-0.34,1.28C95.91,59.92,93.46,61.46,89.81,61.5z"/>
		</g>
		<g>
			<path class="st2" d="M86.37,52.29c-1.64-0.1-2.65-0.82-2.58-1.85c0.08-1.09,1.27-2.01,2.47-1.92c1.15,0.09,2.09,1.07,2.03,2.13
				C88.22,51.67,87.42,52.35,86.37,52.29z"/>
		</g>
		<g>
			<path class="st2" d="M97.45,50.46c0.02,0.82-1.4,1.81-2.6,1.83c-0.93,0.01-1.75-0.7-1.79-1.55c-0.05-1.01,1.16-2.19,2.25-2.2
				C96.3,48.52,97.43,49.54,97.45,50.46z"/>
		</g>
		<g>
			<path class="st2" d="M75.03,87.78c-2.29-0.11-4.28-0.21-6.26-0.31c-0.79-0.04-1.12-0.46-1.26-1.25c-0.5-2.69-0.54-2.74,2.23-2.83
				c3.31-0.11,6.63-0.15,9.95-0.17c1.59-0.01,2.91,1,2.94,2.13c0.03,1.14-1.45,2.38-2.97,2.42C78.01,87.81,76.37,87.78,75.03,87.78z
				"/>
		</g>
		<g>
			<path class="st2" d="M104.14,72.01c0.05-3.21,2.61-5.68,5.82-5.61c3.44,0.07,5.8,2.38,5.75,5.63c-0.04,2.85-2.95,5.93-5.56,5.88
				C106.84,77.84,104.09,75.15,104.14,72.01z M112.11,71.98c-0.02-0.92-1.17-1.88-2.2-1.84c-1.06,0.04-2.12,1.01-2.12,1.96
				c-0.01,0.99,1.29,2.3,2.26,2.26C111.17,74.3,112.13,73.2,112.11,71.98z"/>
		</g>
		<g>
			<path class="st2" d="M35.46,72.2c0.04-3.1,2.93-5.98,5.91-5.91c3.21,0.08,5.78,2.67,5.79,5.87c0.01,2.76-3,5.85-5.65,5.79
				C38.47,77.87,35.42,74.98,35.46,72.2z M41.67,74.39c0.74-0.02,1.66-1.2,1.66-2.13c0-1.03-1.06-2.06-2.11-2.06
				c-0.93,0-1.98,0.97-1.97,1.82C39.26,73.06,40.65,74.42,41.67,74.39z"/>
		</g>
		<g>
			<path class="st2" d="M114.31,26.09c-3.75-0.06-6.67-3.16-6.59-6.98c0.07-3.45,3.11-6.14,6.86-6.08c3.44,0.06,6.4,2.97,6.19,6.34
				C120.56,22.75,117.92,26.26,114.31,26.09z M113.97,16.78c-1.34,0.02-2.48,1.23-2.46,2.61c0.02,1.33,1.5,2.91,2.7,2.89
				c1.3-0.02,2.78-1.55,2.75-2.84C116.92,18.05,115.47,16.75,113.97,16.78z"/>
		</g>
		<path class="st1" d="M112.11,71.98c0.02,1.23-0.94,2.33-2.07,2.37c-0.97,0.04-2.27-1.26-2.26-2.26c0.01-0.95,1.06-1.92,2.12-1.96
			C110.94,70.1,112.09,71.06,112.11,71.98z"/>
		<path class="st1" d="M41.67,74.39c-1.03,0.03-2.41-1.32-2.43-2.37c-0.01-0.85,1.04-1.82,1.97-1.82c1.06,0,2.11,1.03,2.11,2.06
			C43.33,73.18,42.42,74.36,41.67,74.39z"/>
		<path class="st1" d="M113.97,16.78c1.5-0.02,2.96,1.27,2.99,2.67c0.03,1.3-1.44,2.82-2.75,2.84c-1.2,0.02-2.68-1.57-2.7-2.89
			C111.49,18.01,112.63,16.8,113.97,16.78z"/>
		<g>
			<path class="st1" d="M64.98,37.05c-0.03-0.01-0.06-0.01-0.1-0.02c-1.57-0.25-3.2-0.27-4.8-0.21c-2.16,0.09-4.38,2.44-4.06,4.64
				c0.12,0.82,0.02,1.67,0.02,2.51c0.05,0,0.1,0,0.15,0c0,0.83-0.01,1.66,0,2.49C58.68,43.02,62.57,39.85,64.98,37.05z"/>
			<g>
				<path class="st0" d="M68.4,41.31c-0.02-2.24-1.24-3.88-3.42-4.26c-2.41,2.8-6.29,5.97-8.79,9.42c0,0.15,0,0.29,0,0.44
					c0.04,2.48,1.68,4.12,4.14,4.13c1.5,0,3.01,0.03,4.51-0.04c2.22-0.1,3.53-1.49,3.56-3.71C68.42,45.29,68.42,43.3,68.4,41.31z"/>
			</g>
		</g>
		<g>
			<g>
				<path class="st0" d="M44.55,44.11c0-0.98,0.02-1.96-0.01-2.94c-0.05-1.85-1.24-3.41-3-3.99c-0.3-0.1-0.61-0.18-0.92-0.24
					c-2.3,2.71-6.02,5.77-8.55,9.09c0.01,0.48,0.01,0.95,0.02,1.43c0.05,1.75,1.86,3.52,3.62,3.57c1.57,0.04,3.15,0.04,4.72,0
					c2.58-0.05,4.21-1.73,4.23-4.3c0-0.87,0-1.75,0-2.62C44.62,44.11,44.58,44.11,44.55,44.11z"/>
			</g>
			<path class="st1" d="M40.63,36.94c-1.66-0.35-3.34-0.2-4.98,0.15c-2.05,0.44-3.5,2.3-3.55,4.29c-0.04,1.55-0.04,3.1-0.02,4.65
				C34.6,42.7,38.33,39.65,40.63,36.94z"/>
		</g>
		<path class="st0" d="M79.84,46.27h21.31c-4.58-3.99-11.71-10.1-20.88-5.01C79.25,43.3,79.84,46.27,79.84,46.27z"/>
		<g>
			<path class="st4" d="M109.96,66.39c-3.21-0.07-5.78,2.41-5.82,5.61c-0.05,3.14,2.7,5.83,6.02,5.89c2.61,0.05,5.52-3.03,5.56-5.88
				C115.76,68.77,113.4,66.46,109.96,66.39z"/>
			<g>
				<path class="st0" d="M100.81,74.28c0.94,4.41,4.61,7.71,9.04,7.75c3.11,0.02,5.86-1.56,7.58-4.02
					C109.5,83.04,104.34,79.24,100.81,74.28z"/>
			</g>
			<path class="st1" d="M109.99,62.86c-5.41-0.06-9.37,3.76-9.42,9.1c-0.01,0.8,0.08,1.57,0.24,2.32c3.53,4.96,8.69,8.76,16.62,3.73
				c1.15-1.64,1.85-3.67,1.88-5.89C119.36,67.27,115.1,62.75,109.99,62.86z M110.16,77.9c-3.32-0.06-6.07-2.76-6.02-5.89
				c0.05-3.21,2.61-5.68,5.82-5.61c3.44,0.07,5.8,2.38,5.75,5.63C115.68,74.87,112.77,77.95,110.16,77.9z"/>
		</g>
		<g>
			<path class="st4" d="M41.37,66.29c-2.98-0.07-5.87,2.81-5.91,5.91c-0.04,2.78,3.01,5.67,6.05,5.74c2.65,0.06,5.66-3.03,5.65-5.79
				C47.15,68.96,44.59,66.37,41.37,66.29z"/>
			<g>
				<path class="st0" d="M32.77,75.86c1.26,3.54,4.2,6.14,8.81,6.14c3.58,0.03,6.38-1.91,7.9-4.88
					C41.71,82.78,36.45,80.22,32.77,75.86z"/>
			</g>
			<path class="st1" d="M41.47,62.88c-5.44-0.04-9.57,3.83-9.4,9.11c0.04,1.35,0.28,2.66,0.71,3.86c3.68,4.36,8.93,6.93,16.71,1.26
				c0.74-1.46,1.19-3.16,1.25-5.02C50.95,66.15,45.36,62.91,41.47,62.88z M41.51,77.94c-3.04-0.07-6.09-2.96-6.05-5.74
				c0.04-3.1,2.93-5.98,5.91-5.91c3.21,0.08,5.78,2.67,5.79,5.87C47.18,74.91,44.16,78,41.51,77.94z"/>
		</g>
	</g>
	<g>
		<g>
			<path class="st3" d="M61.16,116.7c-0.86,0-1.81,0.12-2.83,0.35c-1.05,0.24-1.87,0.51-2.5,0.84c-0.36,0.18-0.58,0.55-0.58,0.95
				v2.97c0,0.39,0.22,0.76,0.56,0.94c0.16,0.09,0.33,0.13,0.51,0.13c0.01,0,0.01,0,0.02,0c-0.93,0.55-1.51,1.26-1.87,2.03v-2
				c0-5.4-3.28-6.2-5.23-6.2c-1.66,0-3.08,0.55-4.17,1.6c-0.91-1.05-2.2-1.6-3.81-1.6c-1.06,0-2.05,0.26-2.95,0.79
				c-0.08,0.05-0.17,0.1-0.25,0.15c-0.17-0.37-0.54-0.63-0.98-0.63h-3.94c-0.59,0-1.07,0.48-1.07,1.07v6.53
				c-0.07-0.39-0.17-0.75-0.3-1.09c-0.27-0.67-0.66-1.28-1.16-1.8c-0.47-0.49-1.04-0.94-1.69-1.32c-0.61-0.36-1.3-0.7-2.06-1.02
				c-0.5-0.21-0.95-0.41-1.35-0.6c-0.36-0.18-0.66-0.35-0.9-0.53c-0.19-0.14-0.33-0.27-0.41-0.4c-0.03-0.04-0.06-0.1-0.06-0.21
				c0-0.08,0.02-0.13,0.04-0.16c0.05-0.08,0.14-0.16,0.26-0.23c0.16-0.1,0.37-0.18,0.63-0.24c0.29-0.07,0.63-0.1,1-0.1
				c0.28,0,0.59,0.02,0.91,0.07c0.32,0.04,0.65,0.11,0.97,0.2c0.32,0.09,0.64,0.2,0.94,0.34c0.29,0.13,0.56,0.28,0.8,0.45
				c0.18,0.13,0.4,0.19,0.61,0.19c0.17,0,0.34-0.04,0.5-0.12c0.35-0.18,0.57-0.55,0.57-0.95v-3.72c0-0.44-0.27-0.84-0.69-1
				c-0.67-0.26-1.42-0.45-2.21-0.58c-0.77-0.12-1.66-0.18-2.64-0.18c-1.03,0-2.02,0.11-2.94,0.33c-0.97,0.23-1.84,0.6-2.58,1.1
				c-0.78,0.52-1.41,1.2-1.86,2.02c-0.46,0.83-0.7,1.81-0.7,2.92c0,1.44,0.43,2.69,1.27,3.72c0.79,0.97,1.99,1.79,3.55,2.44
				c0.53,0.22,1.03,0.43,1.49,0.64c0.42,0.19,0.78,0.39,1.07,0.59c0.24,0.16,0.42,0.33,0.55,0.5c0.07,0.09,0.09,0.18,0.09,0.3
				c0,0.07-0.01,0.13-0.05,0.19c-0.05,0.08-0.14,0.15-0.21,0.2c-0.15,0.1-0.36,0.18-0.62,0.24c-0.29,0.07-0.65,0.11-1.08,0.11
				c-0.74,0-1.48-0.13-2.21-0.39c-0.72-0.26-1.4-0.65-2.03-1.18c-0.2-0.17-0.44-0.25-0.69-0.25c-0.15,0-0.31,0.03-0.45,0.1
				c-0.38,0.18-0.62,0.55-0.62,0.97v3.99c0,0.4,0.22,0.77,0.58,0.95c0.74,0.38,1.61,0.66,2.59,0.85c0.95,0.18,1.95,0.27,2.99,0.27
				c1.02,0,2.01-0.1,2.94-0.3c0.98-0.21,1.87-0.56,2.62-1.05c0.79-0.51,1.43-1.19,1.89-2.02c0.3-0.54,0.5-1.17,0.6-1.85v3.84
				c0,0.59,0.48,1.07,1.07,1.07h3.94c0.59,0,1.07-0.48,1.07-1.07v-7.09c0-0.67,0.13-1.18,0.39-1.52c0.2-0.26,0.42-0.37,0.76-0.37
				c0.37,0,0.93,0,0.93,1.63v7.35c0,0.59,0.48,1.07,1.07,1.07h3.94c0.59,0,1.07-0.48,1.07-1.07v-7.14c0-0.6,0.13-1.08,0.4-1.45
				c0.25-0.35,0.5-0.4,0.72-0.4c0.39,0,0.97,0,0.97,1.71v7.27c0,0.59,0.48,1.07,1.07,1.07h3.92c0.59,0,1.07-0.48,1.07-1.07v-1.25
				c0.22,0.47,0.52,0.9,0.9,1.27c0.91,0.9,2.15,1.36,3.67,1.36c1.11,0,2.11-0.27,2.95-0.81c0.19,0.3,0.52,0.49,0.9,0.49h3.72
				c0.59,0,1.07-0.48,1.07-1.07v-7.62C67.69,119.01,65.37,116.7,61.16,116.7z M57.46,122.36c1.03-0.57,2.07-0.84,3.19-0.84
				c0.38,0,0.64,0.05,0.82,0.13l-2.15,0.29C58.61,122.03,57.99,122.18,57.46,122.36z M61.43,126.87c-0.26,0.29-0.57,0.42-1.01,0.42
				c-0.25,0-0.43-0.05-0.54-0.15c-0.08-0.07-0.12-0.14-0.12-0.31c0-0.23,0-0.54,0.98-0.67l1.08-0.14
				C61.77,126.36,61.64,126.64,61.43,126.87z"/>
		</g>
		<g>
			<path class="st3" d="M108.76,116.7c-0.86,0-1.81,0.12-2.83,0.35c-0.87,0.2-1.58,0.42-2.16,0.68l1.52-4.41
				c0.11-0.33,0.06-0.69-0.14-0.97c-0.2-0.28-0.53-0.45-0.87-0.45h-4.21c-0.47,0-0.89,0.31-1.03,0.76l-3.09,10.35l-3.1-10.35
				c-0.14-0.45-0.55-0.76-1.03-0.76h-4.33c-0.35,0-0.67,0.17-0.87,0.45c-0.2,0.28-0.25,0.64-0.14,0.97l1.29,3.79
				c-0.14-0.06-0.29-0.1-0.45-0.1h-1.79v-2.8c0-0.34-0.16-0.65-0.43-0.86c-0.19-0.14-0.41-0.22-0.65-0.22c-0.1,0-0.2,0.01-0.29,0.04
				l-3.92,1.12c-0.46,0.13-0.78,0.55-0.78,1.03v1.68h-1c-0.14,0-0.27,0.03-0.39,0.07c-0.03-0.02-0.06-0.05-0.1-0.06
				c-0.37-0.16-0.83-0.24-1.39-0.24c-0.77,0-1.68,0.16-2.51,0.72c-0.19-0.3-0.52-0.5-0.9-0.5h-3.94c-0.59,0-1.07,0.48-1.07,1.07
				v12.76c0,0.59,0.48,1.07,1.07,1.07h3.94c0.59,0,1.07-0.48,1.07-1.07v-6.09c0-0.83,0.17-1.47,0.5-1.91
				c0.28-0.36,0.63-0.52,1.16-0.52c0.45,0,0.83,0.08,1.15,0.26c0.16,0.09,0.34,0.13,0.51,0.13c0.19,0,0.38-0.05,0.55-0.15
				c0.2-0.12,0.34-0.29,0.43-0.5h0.93v4.77c0,3.48,1.86,5.39,5.23,5.39c1.36,0,2.38-0.19,3.13-0.58c0.35-0.19,0.57-0.55,0.57-0.95
				v-2.92c0-0.38-0.2-0.73-0.52-0.92c-0.17-0.1-0.36-0.15-0.55-0.15c-0.18,0-0.35,0.04-0.51,0.13c-0.28,0.15-0.54,0.23-0.77,0.23
				c-0.27,0-0.51,0-0.51-0.92v-4.09h1.79c0.59,0,1.07-0.48,1.07-1.07v-2.05l4.17,12.25c0.15,0.43,0.56,0.73,1.01,0.73h4.56
				c0.46,0,0.86-0.29,1.01-0.72l3.71-10.77v1.39c0,0.39,0.22,0.76,0.56,0.94c0.16,0.09,0.33,0.13,0.51,0.13c0.01,0,0.01,0,0.02,0
				c-1.88,1.11-2.35,2.89-2.35,4.41c0,1.46,0.46,2.66,1.38,3.57c0.91,0.9,2.15,1.36,3.67,1.36c1.11,0,2.11-0.27,2.95-0.8
				c0.19,0.3,0.52,0.49,0.9,0.49h3.72c0.59,0,1.07-0.48,1.07-1.07v-7.62C115.29,119.01,112.97,116.7,108.76,116.7z M103.93,122.88
				c1.43-1.14,3.2-1.36,4.32-1.36c0.38,0,0.64,0.05,0.82,0.13l-2.15,0.29C106.21,122.03,104.51,122.55,103.93,122.88z
				 M109.03,126.87c-0.26,0.29-0.58,0.42-1.01,0.42c-0.25,0-0.43-0.05-0.54-0.15c-0.08-0.07-0.12-0.14-0.12-0.31
				c0-0.23,0-0.54,0.98-0.67l1.08-0.14C109.37,126.36,109.24,126.64,109.03,126.87z"/>
		</g>
		<path class="st0" d="M110.71,124.45c0,0-2.43-0.1-3.6,0.54c-1.16,0.65-1.84,1.95-0.61,3.38c1.23,1.43,3.01,0.24,3.61-0.35
			C110.71,127.42,111.3,125.64,110.71,124.45z"/>
		<path class="st0" d="M63.1,124.45c0,0-2.43-0.1-3.6,0.54s-1.84,1.95-0.61,3.38c1.23,1.43,3.01,0.24,3.61-0.35
			C63.1,127.42,63.69,125.64,63.1,124.45z"/>
		<g>
			<path class="st3" d="M124.9,116.7c-1.21,0-2.28,0.31-3.19,0.91c-0.18-0.35-0.54-0.59-0.96-0.59h-3.94
				c-0.59,0-1.07,0.48-1.07,1.07v12.76c0,0.59,0.48,1.07,1.07,1.07h3.94c0.59,0,1.07-0.48,1.07-1.07v-7.27
				c0-0.55,0.13-0.98,0.41-1.3c0.24-0.28,0.5-0.4,0.86-0.4c0.39,0,1.05,0,1.05,1.89v7.09c0,0.59,0.48,1.07,1.07,1.07h3.92
				c0.59,0,1.07-0.48,1.07-1.07v-7.81C130.21,117.52,126.88,116.7,124.9,116.7z"/>
		</g>
		<g>
			<path class="st1" d="M104.27,112.98l-6.15,17.86h-4.56l-6.08-17.86h4.33l3.73,12.43c0.2,0.67,0.32,1.27,0.36,1.78h0.07
				c0.06-0.56,0.19-1.17,0.39-1.83l3.7-12.38H104.27z"/>
			<path class="st1" d="M114.21,130.84h-3.72v-1.83h-0.05c-0.86,1.43-2.12,2.14-3.8,2.14c-1.24,0-2.21-0.35-2.92-1.05
				c-0.71-0.7-1.06-1.64-1.06-2.81c0-2.47,1.47-3.9,4.4-4.29l3.46-0.46c0-1.39-0.76-2.09-2.27-2.09c-1.52,0-2.96,0.45-4.34,1.36
				v-2.97c0.55-0.28,1.3-0.53,2.25-0.75c0.95-0.22,1.82-0.32,2.6-0.32c3.64,0,5.46,1.81,5.46,5.44V130.84z M110.51,125.66v-0.86
				l-2.32,0.3c-1.28,0.17-1.92,0.74-1.92,1.73c0,0.45,0.16,0.82,0.47,1.1c0.31,0.29,0.73,0.43,1.26,0.43c0.74,0,1.34-0.26,1.81-0.77
				C110.28,127.08,110.51,126.44,110.51,125.66z"/>
			<path class="st1" d="M129.14,130.84h-3.92v-7.09c0-1.98-0.71-2.97-2.12-2.97c-0.68,0-1.24,0.26-1.68,0.78
				c-0.44,0.52-0.66,1.19-0.66,1.99v7.27h-3.94v-12.76h3.94v2.02h0.05c0.94-1.55,2.3-2.33,4.1-2.33c2.82,0,4.24,1.75,4.24,5.26
				V130.84z"/>
		</g>
		<g>
			<path class="st1" d="M18.92,130.15v-3.99c0.72,0.61,1.51,1.06,2.35,1.36c0.85,0.3,1.7,0.45,2.57,0.45c0.51,0,0.95-0.05,1.33-0.14
				c0.38-0.09,0.69-0.22,0.95-0.38c0.25-0.16,0.44-0.35,0.57-0.57c0.12-0.22,0.19-0.46,0.19-0.72c0-0.35-0.1-0.66-0.3-0.93
				c-0.2-0.27-0.47-0.53-0.82-0.76c-0.34-0.23-0.75-0.46-1.23-0.67c-0.47-0.22-0.98-0.44-1.53-0.66c-1.4-0.58-2.44-1.29-3.12-2.13
				c-0.69-0.84-1.03-1.85-1.03-3.04c0-0.93,0.19-1.73,0.56-2.4s0.88-1.22,1.53-1.65c0.64-0.43,1.39-0.75,2.24-0.95
				c0.85-0.2,1.74-0.31,2.69-0.31c0.93,0,1.75,0.06,2.47,0.17c0.72,0.11,1.38,0.28,1.99,0.52v3.72c-0.3-0.21-0.63-0.39-0.98-0.55
				c-0.35-0.16-0.72-0.29-1.09-0.39c-0.37-0.1-0.75-0.18-1.11-0.23c-0.37-0.05-0.72-0.07-1.05-0.07c-0.46,0-0.87,0.04-1.25,0.13
				c-0.37,0.09-0.69,0.21-0.95,0.37c-0.26,0.16-0.46,0.35-0.6,0.57c-0.14,0.22-0.21,0.47-0.21,0.74c0,0.3,0.08,0.57,0.24,0.8
				s0.38,0.46,0.67,0.67c0.29,0.21,0.64,0.42,1.06,0.62c0.42,0.2,0.88,0.41,1.41,0.63c0.71,0.3,1.36,0.62,1.92,0.95
				c0.57,0.34,1.06,0.72,1.46,1.14c0.41,0.42,0.72,0.91,0.93,1.45c0.22,0.54,0.32,1.18,0.32,1.9c0,1-0.19,1.83-0.57,2.51
				c-0.38,0.68-0.89,1.23-1.54,1.64c-0.65,0.42-1.4,0.72-2.26,0.9s-1.77,0.27-2.72,0.27c-0.98,0-1.91-0.08-2.8-0.25
				C20.33,130.73,19.56,130.49,18.92,130.15z"/>
			<path class="st1" d="M53.4,130.84h-3.92v-7.27c0-1.85-0.68-2.78-2.04-2.78c-0.65,0-1.18,0.28-1.58,0.83
				c-0.41,0.56-0.61,1.25-0.61,2.08v7.14H41.3v-7.35c0-1.8-0.67-2.7-2.01-2.7c-0.67,0-1.21,0.27-1.61,0.8
				c-0.4,0.53-0.6,1.25-0.6,2.17v7.09h-3.94v-12.76h3.94v1.99h0.05c0.41-0.68,0.98-1.23,1.71-1.66c0.73-0.43,1.54-0.64,2.41-0.64
				c1.8,0,3.04,0.79,3.7,2.38c0.97-1.59,2.4-2.38,4.29-2.38c2.77,0,4.16,1.71,4.16,5.13V130.84z"/>
			<path class="st1" d="M66.61,130.84h-3.72v-1.83h-0.05c-0.86,1.43-2.12,2.14-3.8,2.14c-1.24,0-2.21-0.35-2.92-1.05
				c-0.71-0.7-1.06-1.64-1.06-2.81c0-2.47,1.47-3.9,4.4-4.29l3.46-0.46c0-1.39-0.76-2.09-2.27-2.09c-1.52,0-2.96,0.45-4.34,1.36
				v-2.97c0.55-0.28,1.3-0.53,2.25-0.75c0.95-0.22,1.82-0.32,2.6-0.32c3.64,0,5.46,1.81,5.46,5.44V130.84z M62.92,125.66v-0.86
				l-2.32,0.3c-1.28,0.17-1.92,0.74-1.92,1.73c0,0.45,0.16,0.82,0.47,1.1c0.31,0.29,0.73,0.43,1.26,0.43c0.74,0,1.34-0.26,1.81-0.77
				C62.68,127.08,62.92,126.44,62.92,125.66z"/>
			<path class="st1" d="M77.54,121.63c-0.47-0.26-1.03-0.39-1.66-0.39c-0.86,0-1.52,0.31-2.01,0.94c-0.48,0.63-0.72,1.48-0.72,2.56
				v6.09h-3.94v-12.76h3.94v2.37h0.05c0.62-1.73,1.74-2.59,3.36-2.59c0.42,0,0.74,0.05,0.97,0.15V121.63z"/>
			<path class="st1" d="M87.31,130.69c-0.58,0.31-1.46,0.46-2.63,0.46c-2.77,0-4.16-1.44-4.16-4.32v-5.84h-2.07v-2.9h2.07v-2.75
				l3.92-1.12v3.87h2.87v2.9h-2.87v5.16c0,1.33,0.53,1.99,1.58,1.99c0.41,0,0.84-0.12,1.28-0.36V130.69z"/>
		</g>
		<g>
			<path class="st2" d="M24.01,130.72c-0.95,0-1.86-0.08-2.72-0.24c-0.74-0.14-1.39-0.34-1.95-0.59v-2.86
				c0.56,0.38,1.16,0.68,1.78,0.91c0.89,0.32,1.8,0.48,2.71,0.48c0.54,0,1.02-0.05,1.43-0.15c0.42-0.1,0.78-0.25,1.08-0.44
				c0.31-0.2,0.55-0.44,0.71-0.72c0.16-0.28,0.24-0.6,0.24-0.93c0-0.44-0.13-0.84-0.38-1.19c-0.23-0.31-0.54-0.6-0.92-0.86
				c-0.36-0.25-0.8-0.48-1.29-0.71c-0.48-0.22-0.99-0.44-1.55-0.67c-1.32-0.55-2.31-1.22-2.95-2c-0.63-0.77-0.93-1.67-0.93-2.77
				c0-0.85,0.17-1.59,0.51-2.19c0.34-0.61,0.81-1.11,1.39-1.5c0.6-0.4,1.3-0.7,2.1-0.89c0.81-0.19,1.68-0.29,2.59-0.29
				c0.9,0,1.71,0.06,2.41,0.16c0.58,0.09,1.12,0.22,1.62,0.39v2.67c-0.12-0.06-0.25-0.12-0.37-0.18c-0.37-0.17-0.76-0.31-1.15-0.41
				c-0.39-0.11-0.78-0.19-1.17-0.24c-0.39-0.05-0.76-0.08-1.11-0.08c-0.49,0-0.94,0.05-1.34,0.14c-0.42,0.1-0.78,0.24-1.07,0.42
				c-0.31,0.19-0.56,0.43-0.73,0.7c-0.19,0.29-0.28,0.62-0.28,0.97c0,0.38,0.1,0.73,0.31,1.04c0.19,0.28,0.45,0.54,0.78,0.78
				c0.31,0.22,0.69,0.45,1.12,0.66c0.42,0.21,0.9,0.42,1.43,0.64c0.69,0.29,1.32,0.6,1.87,0.93c0.53,0.31,0.99,0.67,1.37,1.07
				c0.37,0.38,0.65,0.82,0.84,1.31c0.19,0.49,0.29,1.08,0.29,1.74c0,0.92-0.17,1.69-0.51,2.3c-0.34,0.61-0.81,1.11-1.4,1.49
				c-0.6,0.39-1.31,0.67-2.12,0.84C25.82,130.63,24.93,130.72,24.01,130.72z"/>
			<path class="st2" d="M49.9,130.41v-6.85c0-2.65-1.34-3.21-2.47-3.21c-0.79,0-1.44,0.34-1.93,1.01c-0.46,0.63-0.69,1.41-0.69,2.33
				v6.71h-3.08v-6.92c0-2.59-1.32-3.13-2.43-3.13c-0.81,0-1.47,0.33-1.95,0.97c-0.46,0.6-0.69,1.42-0.69,2.43v6.66h-3.08v-11.9h3.08
				v1.56c0,0.24,0.19,0.43,0.43,0.43c0.15,0,0.34-0.08,0.42-0.21c0.37-0.61,0.89-1.12,1.56-1.51c0.67-0.39,1.4-0.58,2.19-0.58
				c1.63,0,2.71,0.69,3.3,2.12c0.06,0.15,0.2,0.25,0.36,0.26c0.01,0,0.02,0,0.03,0c0.15,0,0.29-0.08,0.37-0.2
				c0.9-1.46,2.18-2.17,3.92-2.17c2.51,0,3.73,1.54,3.73,4.7v7.51H49.9z"/>
			<path class="st2" d="M59.04,130.72c-1.13,0-1.99-0.3-2.62-0.93c-0.63-0.62-0.94-1.44-0.94-2.5c0-2.24,1.32-3.51,4.02-3.86
				l3.46-0.46c0.21-0.03,0.37-0.21,0.37-0.42c0-1.63-0.96-2.52-2.7-2.52c-1.35,0-2.66,0.35-3.91,1.03v-1.94
				c0.49-0.22,1.13-0.42,1.91-0.6c0.92-0.21,1.76-0.31,2.5-0.31c3.38,0,5.03,1.64,5.03,5.02v7.2h-2.87v-1.4
				c0-0.24-0.19-0.43-0.43-0.43c-0.15,0-0.34,0.08-0.42,0.21C61.69,130.09,60.57,130.72,59.04,130.72z M62.86,124.37l-2.32,0.3
				c-1.89,0.25-2.29,1.31-2.29,2.16c0,0.57,0.2,1.05,0.61,1.42c0.39,0.36,0.91,0.54,1.55,0.54c0.86,0,1.58-0.3,2.12-0.91
				c0.54-0.59,0.81-1.34,0.81-2.23v-0.86c0-0.12-0.05-0.24-0.15-0.32c-0.08-0.07-0.18-0.11-0.28-0.11
				C62.9,124.37,62.88,124.37,62.86,124.37z"/>
			<path class="st2" d="M69.65,130.41v-11.9h3.08v1.94c0,0.24,0.19,0.43,0.43,0.43c0.18,0,0.39-0.11,0.45-0.28
				c0.56-1.55,1.53-2.31,2.96-2.31c0.23,0,0.41,0.02,0.54,0.04v2.66c-0.38-0.12-0.79-0.17-1.23-0.17c-0.99,0-1.78,0.37-2.35,1.11
				c-0.54,0.7-0.81,1.65-0.81,2.82v5.66H69.65z"/>
			<path class="st2" d="M84.68,130.72c-2.55,0-3.73-1.24-3.73-3.89v-5.84c0-0.24-0.19-0.43-0.43-0.43h-1.64v-2.05h1.64
				c0.24,0,0.43-0.19,0.43-0.43v-2.43l3.07-0.88v3.31c0,0.24,0.19,0.43,0.43,0.43h2.44v2.05h-2.44c-0.24,0-0.43,0.19-0.43,0.43v5.16
				c0,2.11,1.26,2.42,2.01,2.42c0.28,0,0.57-0.05,0.85-0.14v1.99C86.36,130.62,85.62,130.72,84.68,130.72z"/>
			<path class="st2" d="M93.87,130.41l-5.79-17.01h3.42l3.63,12.13c0.19,0.64,0.31,1.21,0.34,1.69c0.02,0.22,0.2,0.39,0.43,0.39
				h0.07c0.22,0,0.4-0.17,0.43-0.38c0.06-0.53,0.18-1.12,0.37-1.75l3.61-12.08h3.29l-5.86,17.01H93.87z"/>
			<path class="st2" d="M106.64,130.72c-1.13,0-1.99-0.3-2.62-0.93c-0.63-0.62-0.94-1.44-0.94-2.5c0-2.24,1.32-3.51,4.02-3.86
				l3.46-0.46c0.21-0.03,0.37-0.21,0.37-0.42c0-1.63-0.96-2.52-2.7-2.52c-1.35,0-2.66,0.35-3.91,1.03v-1.94
				c0.49-0.22,1.13-0.42,1.92-0.6c0.92-0.21,1.76-0.31,2.5-0.31c3.38,0,5.03,1.64,5.03,5.02v7.2h-2.87v-1.4
				c0-0.24-0.19-0.43-0.43-0.43c-0.15,0-0.34,0.08-0.42,0.21C109.29,130.09,108.17,130.72,106.64,130.72z M110.46,124.37l-2.32,0.3
				c-1.89,0.25-2.29,1.31-2.29,2.16c0,0.57,0.2,1.05,0.61,1.42c0.39,0.36,0.91,0.54,1.55,0.54c0.86,0,1.57-0.3,2.12-0.91
				c0.54-0.59,0.81-1.34,0.81-2.23v-0.86c0-0.12-0.05-0.24-0.15-0.32c-0.08-0.07-0.18-0.11-0.28-0.11
				C110.5,124.37,110.48,124.37,110.46,124.37z"/>
			<path class="st2" d="M125.64,130.41v-6.66c0-2.8-1.38-3.39-2.55-3.39c-0.81,0-1.49,0.31-2.01,0.94c-0.51,0.6-0.76,1.36-0.76,2.27
				v6.85h-3.08v-11.9h3.08v1.59c0,0.24,0.19,0.43,0.43,0.43c0.15,0,0.34-0.08,0.42-0.21c0.86-1.43,2.08-2.12,3.73-2.12
				c2.56,0,3.81,1.58,3.81,4.83v7.38H125.64z"/>
		</g>
	</g>
	<g>
		<g>
			<linearGradient id="SVGID_1_" gradientUnits="userSpaceOnUse" x1="73.8098" y1="142.4876" x2="73.8098" y2="119.2123">
				<stop  offset="0" style="stop-color:#FFFFFF;stop-opacity:0"/>
				<stop  offset="0.5745" style="stop-color:#FDD700"/>
			</linearGradient>
			<path class="st5" d="M127.37,139.63H20.25c-1.64,0-2.97-1.33-2.97-2.97l0,0c0-1.64,1.33-2.97,2.97-2.97h107.12
				c1.64,0,2.97,1.33,2.97,2.97l0,0C130.34,138.3,129.01,139.63,127.37,139.63z"/>
		</g>
		<g>
			<path class="st2" d="M18.04,141.18c0.1,0.08,0.21,0.14,0.33,0.2c0.12,0.06,0.24,0.11,0.37,0.15c0.13,0.04,0.25,0.07,0.38,0.09
				c0.13,0.02,0.25,0.03,0.36,0.03c0.45,0,0.78-0.09,1.01-0.26c0.22-0.18,0.33-0.43,0.33-0.76c0-0.16-0.03-0.3-0.08-0.42
				c-0.05-0.12-0.13-0.23-0.24-0.33c-0.11-0.1-0.25-0.21-0.42-0.31c-0.17-0.1-0.37-0.22-0.59-0.35c-0.25-0.14-0.47-0.27-0.65-0.4
				c-0.18-0.12-0.33-0.25-0.44-0.38c-0.11-0.13-0.2-0.27-0.25-0.42c-0.05-0.15-0.08-0.32-0.08-0.52c0-0.24,0.05-0.46,0.15-0.66
				c0.1-0.19,0.24-0.36,0.41-0.49c0.17-0.14,0.38-0.24,0.61-0.31c0.23-0.07,0.48-0.11,0.74-0.11c0.46,0,0.85,0.07,1.17,0.2v0.62
				c-0.35-0.2-0.76-0.31-1.23-0.31c-0.18,0-0.34,0.02-0.5,0.07c-0.16,0.04-0.29,0.11-0.41,0.19c-0.12,0.08-0.21,0.19-0.28,0.31
				c-0.07,0.12-0.1,0.27-0.1,0.43c0,0.16,0.02,0.29,0.07,0.41c0.05,0.11,0.12,0.22,0.22,0.32c0.1,0.1,0.23,0.2,0.4,0.3
				c0.16,0.1,0.36,0.21,0.6,0.34c0.25,0.13,0.46,0.27,0.65,0.39c0.18,0.13,0.34,0.26,0.46,0.4c0.12,0.14,0.21,0.29,0.27,0.44
				c0.06,0.16,0.09,0.33,0.09,0.52c0,0.26-0.05,0.5-0.14,0.7c-0.1,0.2-0.23,0.37-0.4,0.5c-0.17,0.13-0.38,0.23-0.62,0.3
				c-0.24,0.07-0.5,0.1-0.79,0.1c-0.09,0-0.2-0.01-0.33-0.02c-0.13-0.02-0.26-0.04-0.39-0.07c-0.13-0.03-0.26-0.06-0.38-0.11
				c-0.12-0.04-0.22-0.08-0.29-0.13V141.18z"/>
			<path class="st2" d="M26.98,142.06v-0.77h-0.02c-0.14,0.27-0.32,0.49-0.56,0.64c-0.24,0.15-0.51,0.23-0.81,0.23
				c-0.2,0-0.39-0.03-0.55-0.09c-0.16-0.06-0.3-0.14-0.42-0.25c-0.11-0.11-0.2-0.24-0.26-0.39c-0.06-0.15-0.09-0.32-0.09-0.5
				c0-0.39,0.12-0.7,0.35-0.93c0.24-0.23,0.59-0.38,1.07-0.45l1.28-0.19c0-0.83-0.31-1.24-0.94-1.24c-0.49,0-0.95,0.18-1.37,0.55
				v-0.59c0.09-0.06,0.19-0.12,0.3-0.17c0.11-0.05,0.23-0.1,0.35-0.13c0.12-0.04,0.25-0.07,0.38-0.09c0.13-0.02,0.26-0.03,0.38-0.03
				c0.47,0,0.82,0.13,1.07,0.4c0.24,0.27,0.36,0.67,0.36,1.2v2.8H26.98z M25.89,139.97c-0.19,0.03-0.35,0.06-0.49,0.11
				c-0.13,0.04-0.25,0.1-0.33,0.17c-0.09,0.07-0.15,0.16-0.19,0.26c-0.04,0.11-0.06,0.23-0.06,0.39c0,0.11,0.02,0.22,0.06,0.32
				c0.04,0.1,0.1,0.18,0.17,0.25c0.08,0.07,0.17,0.13,0.28,0.17c0.11,0.04,0.23,0.06,0.37,0.06c0.19,0,0.36-0.04,0.51-0.11
				c0.16-0.07,0.29-0.17,0.41-0.3c0.11-0.13,0.2-0.28,0.27-0.46c0.06-0.18,0.1-0.37,0.1-0.58v-0.42L25.89,139.97z"/>
			<path class="st2" d="M32.77,136.19c-0.12-0.08-0.27-0.12-0.46-0.12c-0.49,0-0.74,0.33-0.74,0.99v0.69h1.05v0.47h-1.05v3.84h-0.53
				v-3.84H30.3v-0.47h0.74v-0.72c0-0.22,0.03-0.41,0.08-0.59c0.05-0.18,0.13-0.33,0.24-0.45c0.1-0.12,0.24-0.22,0.39-0.29
				c0.16-0.07,0.34-0.1,0.55-0.1c0.2,0,0.35,0.03,0.47,0.08V136.19z"/>
			<path class="st2" d="M35.56,140c0,0.26,0.04,0.5,0.1,0.71c0.07,0.21,0.16,0.39,0.28,0.53s0.27,0.26,0.45,0.33
				c0.18,0.08,0.38,0.12,0.6,0.12c0.48,0,0.92-0.17,1.35-0.51v0.53c-0.4,0.29-0.89,0.44-1.47,0.44c-0.28,0-0.54-0.05-0.77-0.15
				c-0.23-0.1-0.43-0.25-0.59-0.44c-0.16-0.19-0.29-0.43-0.38-0.71c-0.09-0.28-0.13-0.6-0.13-0.96c0-0.32,0.05-0.62,0.14-0.9
				s0.23-0.51,0.4-0.71c0.17-0.2,0.37-0.36,0.61-0.47c0.23-0.11,0.49-0.17,0.77-0.17c0.27,0,0.51,0.05,0.72,0.15
				c0.21,0.1,0.38,0.23,0.53,0.41c0.14,0.18,0.25,0.4,0.32,0.66s0.11,0.55,0.11,0.87V140H35.56z M38.07,139.53
				c-0.01-0.45-0.11-0.8-0.31-1.04c-0.2-0.25-0.48-0.37-0.84-0.37c-0.18,0-0.34,0.03-0.5,0.1c-0.15,0.06-0.29,0.16-0.4,0.28
				c-0.12,0.12-0.21,0.27-0.29,0.45c-0.08,0.17-0.13,0.37-0.16,0.59H38.07z"/>
			<path class="st2" d="M49.32,142.06l-0.89-1.73c-0.09-0.17-0.17-0.31-0.26-0.43c-0.08-0.11-0.17-0.21-0.26-0.28
				c-0.09-0.07-0.18-0.12-0.28-0.15c-0.1-0.03-0.21-0.04-0.34-0.04h-0.65v2.62H46.1v-6.03h1.7c0.22,0,0.44,0.03,0.65,0.1
				c0.21,0.07,0.39,0.17,0.55,0.3c0.16,0.13,0.29,0.3,0.39,0.5c0.1,0.2,0.15,0.43,0.15,0.69c0,0.21-0.03,0.41-0.09,0.59
				c-0.06,0.18-0.15,0.34-0.27,0.48c-0.12,0.14-0.26,0.26-0.42,0.35c-0.17,0.1-0.35,0.17-0.56,0.22v0.02
				c0.08,0.03,0.15,0.08,0.22,0.13c0.07,0.05,0.13,0.12,0.19,0.19c0.06,0.08,0.12,0.16,0.18,0.26c0.06,0.1,0.12,0.21,0.19,0.34
				l0.99,1.87H49.32z M46.64,136.54v2.38h0.98c0.2,0,0.38-0.03,0.54-0.09s0.31-0.14,0.42-0.25c0.12-0.11,0.21-0.24,0.27-0.4
				c0.06-0.15,0.1-0.33,0.1-0.52c0-0.35-0.11-0.63-0.33-0.83c-0.22-0.2-0.54-0.3-0.96-0.3H46.64z"/>
			<path class="st2" d="M53.16,136.66c-0.1,0-0.19-0.04-0.26-0.11c-0.07-0.07-0.11-0.17-0.11-0.28c0-0.11,0.04-0.2,0.11-0.27
				c0.07-0.07,0.16-0.11,0.26-0.11c0.05,0,0.1,0.01,0.15,0.03c0.05,0.02,0.09,0.04,0.12,0.08c0.03,0.03,0.06,0.07,0.08,0.12
				c0.02,0.05,0.03,0.1,0.03,0.15c0,0.05-0.01,0.1-0.03,0.15c-0.02,0.05-0.05,0.09-0.08,0.12c-0.04,0.03-0.08,0.06-0.12,0.08
				C53.27,136.65,53.22,136.66,53.16,136.66z M52.9,142.06v-4.31h0.53v4.31H52.9z"/>
			<path class="st2" d="M59.78,142.06v-0.76h-0.02c-0.14,0.27-0.34,0.48-0.6,0.63c-0.26,0.15-0.55,0.22-0.88,0.22
				c-0.26,0-0.5-0.05-0.72-0.15c-0.22-0.1-0.4-0.24-0.55-0.43c-0.15-0.19-0.27-0.42-0.36-0.68c-0.08-0.27-0.13-0.57-0.13-0.9
				c0-0.35,0.05-0.67,0.14-0.95c0.09-0.29,0.22-0.53,0.39-0.74c0.17-0.21,0.37-0.37,0.61-0.48c0.24-0.11,0.5-0.17,0.79-0.17
				c0.61,0,1.04,0.25,1.31,0.74h0.02v-2.71h0.53v6.38H59.78z M59.78,139.46c0-0.19-0.03-0.36-0.09-0.53
				c-0.06-0.16-0.15-0.3-0.26-0.42s-0.25-0.22-0.41-0.29s-0.33-0.11-0.52-0.11c-0.21,0-0.4,0.04-0.58,0.13
				c-0.18,0.08-0.33,0.21-0.45,0.36c-0.12,0.16-0.22,0.35-0.29,0.58s-0.1,0.48-0.1,0.77c0,0.27,0.03,0.52,0.09,0.73
				c0.06,0.22,0.15,0.4,0.27,0.55c0.12,0.15,0.26,0.26,0.42,0.34c0.16,0.08,0.34,0.12,0.54,0.12c0.21,0,0.41-0.04,0.58-0.12
				c0.17-0.08,0.32-0.19,0.44-0.32c0.12-0.14,0.21-0.3,0.28-0.48c0.06-0.19,0.1-0.38,0.1-0.59V139.46z"/>
			<path class="st2" d="M63.94,140c0,0.26,0.04,0.5,0.1,0.71c0.07,0.21,0.16,0.39,0.28,0.53c0.12,0.15,0.27,0.26,0.45,0.33
				c0.18,0.08,0.38,0.12,0.6,0.12c0.48,0,0.92-0.17,1.35-0.51v0.53c-0.4,0.29-0.89,0.44-1.47,0.44c-0.28,0-0.54-0.05-0.77-0.15
				c-0.23-0.1-0.43-0.25-0.59-0.44c-0.16-0.19-0.29-0.43-0.38-0.71c-0.09-0.28-0.13-0.6-0.13-0.96c0-0.32,0.05-0.62,0.14-0.9
				c0.1-0.27,0.23-0.51,0.4-0.71c0.17-0.2,0.37-0.36,0.61-0.47c0.23-0.11,0.49-0.17,0.77-0.17c0.27,0,0.51,0.05,0.72,0.15
				c0.21,0.1,0.38,0.23,0.53,0.41c0.14,0.18,0.25,0.4,0.32,0.66c0.07,0.26,0.11,0.55,0.11,0.87V140H63.94z M66.45,139.53
				c-0.01-0.45-0.11-0.8-0.31-1.04c-0.2-0.25-0.48-0.37-0.84-0.37c-0.18,0-0.34,0.03-0.5,0.1c-0.15,0.06-0.29,0.16-0.4,0.28
				c-0.12,0.12-0.21,0.27-0.29,0.45c-0.08,0.17-0.13,0.37-0.16,0.59H66.45z"/>
			<path class="st2" d="M69.95,143.13h-0.4l0.55-2.03h0.54L69.95,143.13z"/>
			<path class="st2" d="M77.29,142.06h-3.32v-6.03h3.19v0.85h-2.2v1.71h2.03v0.85h-2.03v1.78h2.34V142.06z"/>
			<path class="st2" d="M83.64,137.75l-1.63,4.31h-1.03l-1.55-4.31h1.04l0.94,3.01c0.07,0.22,0.12,0.42,0.13,0.58h0.01
				c0.02-0.21,0.06-0.4,0.11-0.56l0.98-3.03H83.64z"/>
			<path class="st2" d="M89.57,140.17h-2.88c0.01,0.4,0.13,0.71,0.36,0.92c0.23,0.22,0.54,0.32,0.95,0.32
				c0.45,0,0.86-0.14,1.24-0.41v0.79c-0.38,0.25-0.89,0.37-1.52,0.37c-0.62,0-1.11-0.2-1.46-0.59c-0.35-0.39-0.53-0.94-0.53-1.65
				c0-0.67,0.19-1.22,0.58-1.64c0.39-0.42,0.87-0.63,1.45-0.63s1.02,0.19,1.34,0.57c0.32,0.38,0.47,0.9,0.47,1.58V140.17z
				 M88.65,139.48c0-0.35-0.08-0.62-0.24-0.82c-0.16-0.2-0.38-0.29-0.66-0.29c-0.27,0-0.51,0.1-0.7,0.31
				c-0.19,0.2-0.31,0.47-0.35,0.8H88.65z"/>
			<path class="st2" d="M94.7,138.68c-0.12-0.09-0.28-0.14-0.5-0.14c-0.28,0-0.52,0.13-0.71,0.39c-0.19,0.26-0.28,0.62-0.28,1.06
				v2.06h-0.96v-4.31h0.96v0.89h0.02c0.09-0.3,0.24-0.54,0.43-0.71c0.19-0.17,0.41-0.25,0.65-0.25c0.17,0,0.31,0.03,0.4,0.08V138.68
				z"/>
			<path class="st2" d="M101.14,137.75l-1.9,5c-0.4,0.89-0.95,1.34-1.67,1.34c-0.2,0-0.37-0.02-0.5-0.05v-0.81
				c0.15,0.05,0.29,0.08,0.41,0.08c0.36,0,0.62-0.18,0.8-0.54l0.28-0.71l-1.68-4.3h1.06l1.01,3.13c0.01,0.04,0.04,0.14,0.07,0.31
				h0.02c0.01-0.06,0.04-0.17,0.07-0.3l1.06-3.14H101.14z"/>
			<path class="st2" d="M107.48,141.82v-1.03c0.09,0.08,0.2,0.16,0.32,0.23c0.12,0.07,0.26,0.12,0.4,0.17
				c0.14,0.05,0.28,0.08,0.42,0.11c0.14,0.03,0.27,0.04,0.39,0.04c0.41,0,0.72-0.07,0.92-0.21s0.3-0.34,0.3-0.61
				c0-0.14-0.03-0.27-0.1-0.37c-0.07-0.1-0.16-0.2-0.28-0.29c-0.12-0.09-0.26-0.17-0.43-0.25c-0.16-0.08-0.34-0.16-0.53-0.25
				c-0.2-0.11-0.39-0.22-0.56-0.33c-0.17-0.11-0.32-0.24-0.45-0.37c-0.13-0.14-0.23-0.29-0.3-0.46c-0.07-0.17-0.11-0.37-0.11-0.6
				c0-0.28,0.06-0.53,0.19-0.74c0.12-0.21,0.29-0.38,0.49-0.52c0.2-0.14,0.44-0.24,0.7-0.3c0.26-0.07,0.53-0.1,0.8-0.1
				c0.62,0,1.07,0.07,1.35,0.21v0.99c-0.34-0.25-0.77-0.37-1.29-0.37c-0.15,0-0.29,0.01-0.43,0.04c-0.14,0.03-0.27,0.07-0.39,0.14
				c-0.11,0.06-0.21,0.15-0.28,0.25c-0.07,0.1-0.11,0.22-0.11,0.37c0,0.13,0.03,0.25,0.08,0.35s0.14,0.19,0.24,0.27
				c0.11,0.08,0.24,0.16,0.39,0.24c0.15,0.08,0.33,0.16,0.53,0.25c0.21,0.11,0.4,0.22,0.58,0.34c0.18,0.12,0.34,0.25,0.48,0.4
				s0.25,0.31,0.33,0.49c0.08,0.18,0.12,0.38,0.12,0.61c0,0.31-0.06,0.56-0.18,0.77c-0.12,0.21-0.28,0.38-0.49,0.51
				c-0.2,0.13-0.44,0.23-0.71,0.29c-0.27,0.06-0.55,0.09-0.85,0.09c-0.1,0-0.22-0.01-0.36-0.02c-0.14-0.02-0.29-0.04-0.44-0.07
				c-0.15-0.03-0.29-0.07-0.43-0.11C107.67,141.92,107.56,141.87,107.48,141.82z"/>
			<path class="st2" d="M114.49,136.85c-0.16,0-0.29-0.05-0.4-0.16s-0.17-0.24-0.17-0.4c0-0.16,0.06-0.29,0.17-0.4
				c0.11-0.11,0.24-0.16,0.4-0.16c0.16,0,0.3,0.05,0.41,0.16c0.11,0.11,0.17,0.24,0.17,0.4c0,0.15-0.06,0.28-0.17,0.39
				C114.79,136.79,114.65,136.85,114.49,136.85z M114.97,142.06h-0.96v-4.31h0.96V142.06z"/>
			<path class="st2" d="M121.82,142.06h-0.96v-0.73h-0.02c-0.31,0.56-0.78,0.83-1.42,0.83c-0.52,0-0.93-0.19-1.25-0.58
				c-0.31-0.39-0.47-0.91-0.47-1.58c0-0.71,0.17-1.28,0.52-1.71c0.35-0.43,0.8-0.64,1.38-0.64c0.57,0,0.98,0.23,1.24,0.7h0.02v-2.67
				h0.96V142.06z M120.88,140.09v-0.56c0-0.31-0.1-0.56-0.29-0.78c-0.2-0.21-0.44-0.32-0.75-0.32c-0.36,0-0.64,0.14-0.84,0.41
				c-0.2,0.27-0.31,0.65-0.31,1.13c0,0.44,0.1,0.78,0.29,1.04c0.2,0.25,0.46,0.38,0.79,0.38c0.33,0,0.59-0.12,0.79-0.37
				C120.78,140.77,120.88,140.46,120.88,140.09z"/>
			<path class="st2" d="M128.42,140.17h-2.88c0.01,0.4,0.13,0.71,0.36,0.92c0.23,0.22,0.54,0.32,0.95,0.32
				c0.45,0,0.86-0.14,1.24-0.41v0.79c-0.38,0.25-0.89,0.37-1.52,0.37c-0.62,0-1.11-0.2-1.46-0.59c-0.35-0.39-0.53-0.94-0.53-1.65
				c0-0.67,0.19-1.22,0.58-1.64c0.39-0.42,0.87-0.63,1.45-0.63c0.58,0,1.02,0.19,1.34,0.57c0.32,0.38,0.47,0.9,0.47,1.58V140.17z
				 M127.49,139.48c0-0.35-0.08-0.62-0.24-0.82c-0.16-0.2-0.38-0.29-0.66-0.29c-0.27,0-0.51,0.1-0.7,0.31
				c-0.19,0.2-0.31,0.47-0.35,0.8H127.49z"/>
		</g>
	</g>
</g>
</svg>
